<svg width="1920" height="800" viewBox="0 0 1920 800" fill="none" xmlns="http://www.w3.org/2000/svg">
<path d="M102.505 686.87L102.505 686.87C100.357 689.019 96.8764 689.019 94.7283 686.87L83.7914 675.934C81.2528 673.395 77.1389 673.395 74.6003 675.934L63.6633 686.87C61.5152 689.019 58.0346 689.019 55.8865 686.87C53.7384 684.722 53.7384 681.242 55.8865 679.094L66.8234 668.157C69.362 665.618 69.362 661.504 66.8234 658.966L55.8865 648.029C53.7384 645.881 53.7384 642.4 55.8865 640.252C58.0346 638.104 61.5152 638.104 63.6633 640.252L74.6003 651.189C77.1389 653.727 81.2528 653.727 83.7914 651.189L94.7283 640.252C96.8764 638.104 100.357 638.104 102.505 640.252C104.653 642.4 104.653 645.881 102.505 648.029L91.5683 658.966C89.0297 661.504 89.0297 665.618 91.5683 668.157L102.505 679.094C104.653 681.242 104.653 684.724 102.505 686.87Z" stroke="#6A52E0"/>
<path d="M1822.22 64.6328L1837.16 68.7061L1833.08 83.6389" stroke="#6A52E0" stroke-width="2" stroke-miterlimit="10"/>
<path d="M1831.7 59.2207L1846.63 63.294L1842.55 78.2268" stroke="#6A52E0" stroke-width="2" stroke-miterlimit="10"/>
<path d="M1841.17 53.8066L1856.1 57.88L1852.03 72.8128" stroke="#6A52E0" stroke-width="2" stroke-miterlimit="10"/>
<path d="M1850.64 48.3945L1865.58 52.4679L1861.5 67.4006" stroke="#6A52E0" stroke-width="2" stroke-miterlimit="10"/>
<path d="M1860.12 42.9805L1875.05 47.0538L1870.98 61.9866" stroke="#6A52E0" stroke-width="2" stroke-miterlimit="10"/>
</svg>
