<svg width="1920" height="633" viewBox="0 0 1920 633" fill="none" xmlns="http://www.w3.org/2000/svg">
<g clip-path="url(#clip0_835_150)">
<path d="M1815.51 616.914L1848.66 594.186" stroke="white" stroke-opacity="0.1" stroke-width="3" stroke-miterlimit="10" stroke-linecap="round"/>
<path d="M1848.66 611.852L1903.06 573.77" stroke="white" stroke-opacity="0.1" stroke-width="3" stroke-miterlimit="10" stroke-linecap="round"/>
<path d="M49.9908 584.524L46.0208 587.663L42.0488 590.802V584.524V578.246L46.0208 581.385L49.9908 584.524Z" fill="white" fill-opacity="0.1"/>
<path d="M73.3092 584.524L69.3382 587.663L65.3672 590.802V584.524V578.246L69.3382 581.385L73.3092 584.524Z" fill="white" fill-opacity="0.1"/>
<path d="M96.6256 584.524L92.6546 587.663L88.6836 590.802V584.524V578.246L92.6546 581.385L96.6256 584.524Z" fill="white" fill-opacity="0.1"/>
<path d="M119.942 584.524L115.971 587.663L112 590.802V584.524V578.246L115.971 581.385L119.942 584.524Z" fill="white" fill-opacity="0.1"/>
<path d="M143.258 584.524L139.287 587.663L135.316 590.802V584.524V578.246L139.287 581.385L143.258 584.524Z" fill="white" fill-opacity="0.1"/>
<path d="M1862.23 43.3776L1843.04 60.02L1826.4 40.8281L1807.38 57.3205L1824.02 76.5124L1804.83 93.1549L1821.32 112.175L1840.52 95.5321L1857.16 114.724L1876.18 98.23L1859.53 79.0381L1878.73 62.3973L1862.23 43.3776Z" stroke="white" stroke-opacity="0.1" stroke-width="1.4438" stroke-miterlimit="10"/>
<path d="M36.943 85.4997H7.88203C7.06903 85.4997 6.56102 84.6197 6.96702 83.9147L21.497 58.7477L36.027 33.5807C36.434 32.8767 37.45 32.8767 37.857 33.5807L52.387 58.7477L66.917 83.9147C67.324 84.6187 66.815 85.4997 66.002 85.4997H36.943Z" fill="white" fill-opacity="0.1"/>
<path d="M21.1188 93.6755H-7.9422C-8.7552 93.6755 -9.26319 92.7955 -8.85719 92.0905L5.6728 66.9235L20.2028 41.7565C20.6098 41.0525 21.6258 41.0525 22.0328 41.7565L36.5628 66.9235L51.0928 92.0905C51.4998 92.7945 50.9908 93.6755 50.1778 93.6755H21.1188Z" stroke="white" stroke-opacity="0.1" stroke-width="1.4268" stroke-miterlimit="10"/>
</g>
<defs>
<clipPath id="clip0_835_150">
<rect width="1920" height="633" fill="white"/>
</clipPath>
</defs>
</svg>
