<svg width="28" height="29" viewBox="0 0 28 29" fill="none" xmlns="http://www.w3.org/2000/svg">
<g clip-path="url(#clip0_151_460)">
<path d="M14.9396 14.6865C14.6429 14.8153 14.323 14.8818 13.9996 14.8818C13.6762 14.8818 13.3562 14.8153 13.0596 14.6865L1.65956 9.40652C1.47445 9.31315 1.31888 9.17023 1.21019 8.99367C1.1015 8.81711 1.04395 8.61385 1.04395 8.40652C1.04395 8.19919 1.1015 7.99592 1.21019 7.81937C1.31888 7.64281 1.47445 7.49989 1.65956 7.40652L13.0596 2.08652C13.3562 1.9577 13.6762 1.89124 13.9996 1.89124C14.323 1.89124 14.6429 1.9577 14.9396 2.08652L26.3396 7.36652C26.5247 7.45989 26.6803 7.60281 26.7889 7.77937C26.8976 7.95592 26.9552 8.15919 26.9552 8.36652C26.9552 8.57385 26.8976 8.77711 26.7889 8.95367C26.6803 9.13023 26.5247 9.27315 26.3396 9.36652L14.9396 14.6865Z" stroke="#6A52E0" stroke-width="1.5" stroke-linecap="round" stroke-linejoin="round"/>
<path d="M27 15.5865L14.8 21.2065C14.5394 21.3254 14.2564 21.3869 13.97 21.3869C13.6836 21.3869 13.4006 21.3254 13.14 21.2065L1 15.5865" stroke="#6A52E0" stroke-width="1.5" stroke-linecap="round" stroke-linejoin="round"/>
<path d="M27 22.0865L14.8 27.7065C14.5394 27.8254 14.2564 27.8869 13.97 27.8869C13.6836 27.8869 13.4006 27.8254 13.14 27.7065L1 22.0865" stroke="#6A52E0" stroke-width="1.5" stroke-linecap="round" stroke-linejoin="round"/>
</g>
<defs>
<clipPath id="clip0_151_460">
<rect width="28" height="28" fill="white" transform="translate(0 0.886475)"/>
</clipPath>
</defs>
</svg>
