<svg width="28" height="29" viewBox="0 0 28 29" fill="none" xmlns="http://www.w3.org/2000/svg">
<g clip-path="url(#clip0_376_8168)">
<path d="M14 11.0254C21.1797 11.0254 27 8.78681 27 6.02539C27 3.26397 21.1797 1.02539 14 1.02539C6.8203 1.02539 1 3.26397 1 6.02539C1 8.78681 6.8203 11.0254 14 11.0254Z" stroke="#6A52E0" stroke-width="1.5" stroke-linecap="round" stroke-linejoin="round"/>
<path d="M1 6.02539V22.0254C1 24.7854 6.82 27.0254 14 27.0254C21.18 27.0254 27 24.7854 27 22.0254V6.02539" stroke="#6A52E0" stroke-width="1.5" stroke-linecap="round" stroke-linejoin="round"/>
<path d="M27 14.0254C27 16.7854 21.18 19.0254 14 19.0254C6.82 19.0254 1 16.7854 1 14.0254" stroke="#6A52E0" stroke-width="1.5" stroke-linecap="round" stroke-linejoin="round"/>
</g>
<defs>
<clipPath id="clip0_376_8168">
<rect width="28" height="28" fill="white" transform="translate(0 0.0253906)"/>
</clipPath>
</defs>
</svg>
