<svg width="30" height="31" viewBox="0 0 30 31" fill="none" xmlns="http://www.w3.org/2000/svg">
<g clip-path="url(#clip0_327_73)">
<path d="M2.48196 4.94508C2.52573 4.94493 2.5695 4.94477 2.61459 4.94461C2.76208 4.94416 2.90956 4.94413 3.05705 4.94409C3.16353 4.94386 3.27002 4.9436 3.37651 4.94332C3.66979 4.94261 3.96307 4.94228 4.25635 4.94202C4.57242 4.94167 4.88849 4.94099 5.20456 4.94036C5.96825 4.93892 6.73195 4.93806 7.49565 4.93731C7.71134 4.93709 7.92704 4.93686 8.14273 4.93662C9.48208 4.93514 10.8214 4.93385 12.1608 4.93312C12.4711 4.93295 12.7813 4.93277 13.0916 4.9326C13.1688 4.93255 13.2459 4.93251 13.3253 4.93247C14.5744 4.93172 15.8235 4.92978 17.0726 4.92734C18.3549 4.92485 19.6372 4.92347 20.9196 4.92316C21.6396 4.92296 22.3596 4.92228 23.0796 4.92035C23.6928 4.9187 24.3061 4.91806 24.9193 4.91872C25.2321 4.91902 25.5449 4.91885 25.8577 4.9174C26.1444 4.91608 26.431 4.91613 26.7177 4.91724C26.8211 4.9174 26.9245 4.91707 27.0278 4.91619C27.9524 4.9088 28.6482 5.09786 29.3362 5.74893C29.7256 6.16133 30.0065 6.72586 30.008 7.29598C30.0083 7.35517 30.0086 7.41435 30.0089 7.47533C30.009 7.5727 30.009 7.5727 30.009 7.67204C30.0093 7.74109 30.0095 7.81014 30.0098 7.88129C30.0105 8.07303 30.0108 8.26476 30.0111 8.4565C30.0114 8.66329 30.0121 8.87008 30.0128 9.07686C30.0142 9.57637 30.0151 10.0759 30.0158 10.5754C30.016 10.7166 30.0163 10.8577 30.0165 10.9989C30.018 11.876 30.0193 12.7531 30.02 13.6302C30.0202 13.8333 30.0203 14.0365 30.0205 14.2396C30.0206 14.2901 30.0206 14.3405 30.0207 14.3926C30.0214 15.2097 30.0233 16.0268 30.0258 16.844C30.0283 17.6835 30.0296 18.523 30.03 19.3625C30.0302 19.8336 30.0308 20.3047 30.0328 20.7758C30.0344 21.1772 30.0351 21.5786 30.0344 21.98C30.0341 22.1845 30.0343 22.3891 30.0357 22.5937C30.0371 22.8161 30.0366 23.0385 30.0356 23.261C30.0364 23.3247 30.0373 23.3884 30.0381 23.4541C30.0302 24.2253 29.7262 24.8315 29.2042 25.3831C28.7353 25.8258 28.1536 26.056 27.518 26.0549C27.4743 26.055 27.4305 26.0552 27.3854 26.0554C27.2379 26.0558 27.0904 26.0558 26.943 26.0559C26.8365 26.0561 26.73 26.0564 26.6235 26.0567C26.3302 26.0574 26.0369 26.0577 25.7437 26.058C25.4276 26.0583 25.1115 26.059 24.7955 26.0596C24.0318 26.0611 23.2681 26.0619 22.5044 26.0627C22.2887 26.0629 22.073 26.0631 21.8573 26.0634C20.5179 26.0648 19.1786 26.0661 17.8392 26.0669C17.5289 26.067 17.2187 26.0672 16.9084 26.0674C16.7927 26.0674 16.7927 26.0674 16.6747 26.0675C15.4256 26.0683 14.1765 26.0702 12.9275 26.0726C11.6451 26.0751 10.3628 26.0765 9.08046 26.0768C8.36045 26.077 7.64045 26.0777 6.92044 26.0796C6.30719 26.0813 5.69395 26.0819 5.08069 26.0813C4.7679 26.081 4.45513 26.0811 4.14233 26.0826C3.85566 26.0839 3.56902 26.0838 3.28234 26.0827C3.17895 26.0826 3.07555 26.0829 2.97216 26.0838C2.04764 26.0912 1.3518 25.9021 0.663761 25.251C0.274446 24.8386 -0.00650107 24.2741 -0.00802418 23.704C-0.00832152 23.6448 -0.00861884 23.5856 -0.00892518 23.5246C-0.00895435 23.4597 -0.00898365 23.3948 -0.0090137 23.3279C-0.00927047 23.2589 -0.00952721 23.1898 -0.00979176 23.1187C-0.0104397 22.9269 -0.0108237 22.7352 -0.0110915 22.5435C-0.0114409 22.3367 -0.012121 22.1299 -0.0127491 21.9231C-0.0141854 21.4236 -0.0150431 20.9241 -0.0157995 20.4246C-0.016017 20.2834 -0.0162499 20.1423 -0.0164881 20.0011C-0.0179671 19.124 -0.0192588 18.2469 -0.0199877 17.3698C-0.0201594 17.1667 -0.020333 16.9635 -0.0205096 16.7604C-0.0205534 16.7099 -0.0205969 16.6594 -0.020642 16.6074C-0.0213828 15.7903 -0.0233288 14.9731 -0.0257715 14.156C-0.0282604 13.3165 -0.0296383 12.477 -0.0299441 11.6375C-0.0301438 11.1664 -0.0308283 10.6953 -0.0327626 10.2242C-0.034408 9.82276 -0.0350458 9.42139 -0.0343919 9.02C-0.0340891 8.81543 -0.0342493 8.61089 -0.0357082 8.40632C-0.0370416 8.18386 -0.0365498 7.96147 -0.0356212 7.73901C-0.0364346 7.67527 -0.0372479 7.61153 -0.0380859 7.54586C-0.0301977 6.77464 0.273831 6.16851 0.795826 5.61687C1.26473 5.17421 1.84642 4.94399 2.48196 4.94508ZM3.10547 6.71092C3.38159 7.03565 3.38159 7.03565 3.67151 7.34326C3.7104 7.38237 3.74929 7.42149 3.78936 7.46179C3.85182 7.52417 3.85182 7.52417 3.91554 7.58781C3.96061 7.63306 4.00569 7.67831 4.05213 7.72493C4.20245 7.87576 4.35297 8.02637 4.5035 8.17698C4.61161 8.28537 4.71972 8.39377 4.82781 8.50218C5.12085 8.79601 5.4141 9.08962 5.70741 9.38318C5.89061 9.56655 6.07377 9.74996 6.25693 9.93337C6.76435 10.4415 7.27183 10.9496 7.77951 11.4575C7.81194 11.4899 7.84437 11.5224 7.87778 11.5558C7.91028 11.5883 7.94278 11.6208 7.97627 11.6543C8.04213 11.7202 8.10799 11.7861 8.17385 11.852C8.20652 11.8846 8.23918 11.9173 8.27284 11.951C8.80302 12.4814 9.3328 13.0122 9.86242 13.5432C10.4066 14.0887 10.951 14.6339 11.4958 15.1788C11.8016 15.4846 12.1072 15.7905 12.4124 16.0968C12.6991 16.3846 12.9864 16.6719 13.2739 16.9589C13.3794 17.0644 13.4849 17.1701 13.5901 17.2759C13.7336 17.4201 13.8775 17.5637 14.0216 17.7072C14.0634 17.7494 14.1051 17.7917 14.1482 17.8352C14.4559 18.1398 14.663 18.2633 15.1078 18.2752C15.5192 18.206 15.7779 17.9108 16.0575 17.628C16.104 17.5818 16.1505 17.5355 16.1984 17.4878C16.354 17.3326 16.509 17.1768 16.6639 17.021C16.7754 16.9096 16.8868 16.7983 16.9983 16.687C17.2696 16.416 17.5404 16.1446 17.811 15.8731C18.1261 15.557 18.4416 15.2414 18.7571 14.9259C19.3197 14.3631 19.882 13.7999 20.444 13.2365C20.9898 12.6893 21.5359 12.1424 22.0823 11.5958C22.116 11.5621 22.1497 11.5284 22.1844 11.4937C22.2522 11.4258 22.3201 11.3579 22.388 11.2901C22.4214 11.2566 22.4549 11.2231 22.4894 11.1886C22.5228 11.1552 22.5561 11.1218 22.5905 11.0874C23.1108 10.5669 23.6308 10.0462 24.1508 9.52552C24.3395 9.33655 24.5282 9.14762 24.717 8.95871C25.0162 8.65927 25.3153 8.35973 25.6141 8.06C25.7508 7.92297 25.8875 7.78601 26.0243 7.64914C26.1722 7.50113 26.3199 7.35294 26.4676 7.2047C26.5113 7.16099 26.5551 7.11728 26.6002 7.07224C26.659 7.01314 26.659 7.01314 26.7189 6.95285C26.7531 6.91861 26.7872 6.88438 26.8224 6.8491C26.9011 6.78018 26.9011 6.78018 26.8945 6.71092C19.0441 6.71092 11.1938 6.71092 3.10547 6.71092ZM1.75782 7.99999C1.75782 12.95 1.75782 17.9 1.75782 23C2.0126 22.7816 2.25112 22.5726 2.48645 22.337C2.51576 22.3077 2.54506 22.2785 2.57525 22.2483C2.67209 22.1516 2.76873 22.0546 2.86536 21.9577C2.93526 21.8878 3.00517 21.8179 3.07509 21.748C3.26393 21.5592 3.45258 21.3702 3.64121 21.1811C3.83871 20.9833 4.03639 20.7856 4.23404 20.5878C4.60788 20.2138 4.98157 19.8396 5.35521 19.4654C5.78076 19.0392 6.20649 18.6132 6.63223 18.1871C7.50761 17.3111 8.38278 16.4349 9.25782 15.5586C9.16478 15.3326 9.02061 15.1896 8.84888 15.018C8.80392 14.9728 8.80392 14.9728 8.75806 14.9267C8.65762 14.826 8.55677 14.7256 8.45592 14.6253C8.38381 14.5531 8.31173 14.4809 8.23967 14.4087C8.04395 14.2127 7.84786 14.017 7.6517 13.8215C7.44673 13.617 7.24207 13.4122 7.03736 13.2075C6.6937 12.8639 6.3498 12.5205 6.00576 12.1773C5.60743 11.7799 5.2094 11.3822 4.81155 10.9843C4.42932 10.602 4.04693 10.2199 3.66444 9.8379C3.5014 9.67506 3.3384 9.51217 3.17544 9.34924C2.98383 9.15769 2.79208 8.96629 2.6002 8.77501C2.52959 8.70457 2.45904 8.63409 2.38853 8.56355C2.29273 8.46772 2.19675 8.37207 2.10072 8.27647C2.04692 8.22276 1.99311 8.16905 1.93768 8.11372C1.837 7.99331 1.837 7.99331 1.75782 7.99999ZM27.9813 8.19475C27.9381 8.23818 27.9381 8.23818 27.894 8.28249C27.8636 8.31288 27.8332 8.34327 27.8018 8.37457C27.699 8.47727 27.5964 8.58018 27.4938 8.68308C27.4205 8.75641 27.3472 8.82972 27.2739 8.90303C27.0741 9.10276 26.8746 9.30268 26.675 9.50262C26.4667 9.71129 26.2583 9.91979 26.0498 10.1283C25.6548 10.5235 25.2599 10.9189 24.8651 11.3143C24.4158 11.7643 23.9662 12.2141 23.5167 12.6639C22.5917 13.5896 21.6669 14.5154 20.7422 15.4414C20.8352 15.6674 20.9794 15.8104 21.1511 15.982C21.1961 16.0272 21.1961 16.0272 21.2419 16.0732C21.3424 16.174 21.4432 16.2744 21.5441 16.3747C21.6162 16.4469 21.6883 16.5191 21.7603 16.5913C21.9561 16.7873 22.1521 16.9829 22.3483 17.1785C22.5533 17.383 22.7579 17.5877 22.9626 17.7925C23.3063 18.1361 23.6502 18.4795 23.9942 18.8227C24.3926 19.2201 24.7906 19.6178 25.1885 20.0157C25.5707 20.398 25.9531 20.7801 26.3356 21.1621C26.4986 21.3249 26.6616 21.4878 26.8246 21.6507C27.0162 21.8423 27.2079 22.0337 27.3998 22.225C27.4704 22.2954 27.541 22.3659 27.6115 22.4364C27.7073 22.5323 27.8033 22.6279 27.8993 22.7235C27.9531 22.7772 28.0069 22.8309 28.0623 22.8863C28.163 23.0067 28.163 23.0067 28.2422 23C28.2422 18.05 28.2422 13.1 28.2422 7.99999C28.1254 7.99999 28.0592 8.11716 27.9813 8.19475ZM10.3446 16.9835C10.3014 17.0269 10.3014 17.0269 10.2573 17.0712C10.2269 17.1015 10.1965 17.1319 10.1651 17.1631C10.0623 17.2657 9.95972 17.3684 9.85713 17.4712C9.78382 17.5444 9.7105 17.6177 9.63716 17.6909C9.43741 17.8904 9.23783 18.09 9.0383 18.2898C8.82998 18.4982 8.62152 18.7065 8.41309 18.9149C8.063 19.2649 7.71304 19.615 7.36315 19.9651C6.95796 20.3706 6.55257 20.7759 6.14707 21.1811C5.79963 21.5283 5.4523 21.8756 5.10507 22.223C4.89738 22.4307 4.68964 22.6385 4.4818 22.8461C4.28646 23.0413 4.09126 23.2366 3.89618 23.4321C3.82433 23.504 3.75242 23.5759 3.68047 23.6477C3.5827 23.7453 3.48512 23.8431 3.38758 23.9409C3.35867 23.9697 3.32975 23.9985 3.29996 24.0281C3.16396 24.1392 3.16396 24.1392 3.10547 24.2891C10.9559 24.2891 18.8063 24.2891 26.8945 24.2891C26.6762 24.0343 26.4671 23.7958 26.2315 23.5604C26.1877 23.5165 26.1877 23.5165 26.1429 23.4716C26.0461 23.3748 25.9492 23.2781 25.8522 23.1815C25.7823 23.1116 25.7124 23.0417 25.6425 22.9718C25.4537 22.7829 25.2647 22.5943 25.0757 22.4057C24.8778 22.2082 24.6801 22.0105 24.4824 21.8128C24.1084 21.439 23.7342 21.0653 23.36 20.6917C22.9337 20.2661 22.5077 19.8404 22.0817 19.4146C21.2057 18.5393 20.3295 17.6641 19.4531 16.789C19.3882 16.8443 19.3233 16.8996 19.2585 16.9549C19.2223 16.9857 19.1862 17.0165 19.149 17.0482C19 17.178 18.8602 17.3157 18.7207 17.4556C18.6693 17.5068 18.618 17.558 18.5651 17.6107C18.4395 17.7395 18.321 17.873 18.2034 18.009C17.4397 18.8886 16.6131 19.8179 15.4102 20.0117C14.894 20.0448 14.4318 20.0154 13.9453 19.8359C13.8994 19.8201 13.8535 19.8042 13.8062 19.7879C13.2745 19.5658 12.8833 19.1208 12.4805 18.7226C12.4101 18.6538 12.3396 18.585 12.2692 18.5162C11.974 18.2257 11.6879 17.9323 11.4196 17.6165C11.2639 17.4422 11.1 17.2768 10.9351 17.1113C10.9036 17.0796 10.8721 17.0479 10.8397 17.0152C10.593 16.7535 10.593 16.7535 10.3446 16.9835Z" fill="#6A52E0"/>
</g>
<defs>
<clipPath id="clip0_327_73">
<rect width="30" height="30" fill="white" transform="translate(0 0.5)"/>
</clipPath>
</defs>
</svg>
