<svg width="30" height="31" viewBox="0 0 30 31" fill="none" xmlns="http://www.w3.org/2000/svg">
<g clip-path="url(#clip0_327_76)">
<path d="M7.5003 2.78515C8.02626 3.23278 8.51226 3.72814 9.00108 4.21544C9.05559 4.26969 9.05559 4.26969 9.11119 4.32505C9.30292 4.51591 9.49449 4.70692 9.68591 4.89809C9.88197 5.09383 10.0786 5.28902 10.2753 5.48409C10.4283 5.63596 10.5808 5.78823 10.7333 5.9406C10.8056 6.01272 10.878 6.08468 10.9506 6.1565C11.7658 6.9636 12.3718 7.7432 12.4222 8.9375C12.3549 10.3163 11.3026 11.2401 10.386 12.1528C10.3053 12.2339 10.3053 12.2339 10.2229 12.3167C10.1707 12.3688 10.1185 12.4209 10.0647 12.4746C10.018 12.5212 9.97138 12.5678 9.9233 12.6158C9.78546 12.7461 9.64221 12.8642 9.49249 12.9805C9.52671 13.2751 9.66081 13.5027 9.80377 13.7568C9.82956 13.8029 9.85534 13.849 9.88191 13.8965C10.2903 14.6114 10.7795 15.2802 11.3089 15.9102C11.3455 15.9541 11.3455 15.9541 11.3829 15.9989C12.0949 16.8519 12.8455 17.7046 13.6904 18.4285C13.7948 18.5181 13.8983 18.6088 14.0012 18.7C14.7831 19.3888 15.6182 20.0213 16.5237 20.5391C16.5575 20.5588 16.5912 20.5785 16.6259 20.5989C16.7293 20.6592 16.8333 20.7183 16.9376 20.7771C16.9987 20.8116 17.0598 20.8461 17.1227 20.8817C17.3037 20.9568 17.3426 20.9576 17.5198 20.8906C17.626 20.8086 17.626 20.8086 17.7254 20.7022C17.7645 20.6625 17.8037 20.6228 17.844 20.5818C17.9067 20.5169 17.9068 20.5169 17.9707 20.4507C18.0145 20.4062 18.0583 20.3618 18.1035 20.316C18.2907 20.1259 18.4769 19.9348 18.6631 19.7438C18.7994 19.6043 18.9362 19.4654 19.073 19.3264C19.1347 19.2626 19.1347 19.2626 19.1976 19.1975C19.5836 18.8059 20.0105 18.4637 20.5264 18.2612C20.583 18.2384 20.6396 18.2156 20.6979 18.1921C21.4413 17.9376 22.229 18.0562 22.9251 18.3894C23.1853 18.5438 23.4051 18.7239 23.6239 18.9312C23.6607 18.9658 23.6975 19.0004 23.7354 19.0361C24.3371 19.607 24.9219 20.1958 25.5083 20.7823C25.6848 20.9588 25.8617 21.1349 26.0387 21.3109C26.177 21.4486 26.3151 21.5865 26.453 21.7245C26.5181 21.7895 26.5833 21.8544 26.6486 21.9193C27.4605 22.726 28.1722 23.5256 28.2022 24.7175C28.1809 25.9824 27.4189 26.8281 26.5662 27.6864C26.5141 27.739 26.462 27.7916 26.4084 27.8457C26.299 27.9559 26.1895 28.066 26.0798 28.1759C25.9688 28.2871 25.8583 28.3989 25.7482 28.5111C24.5693 29.7111 24.5693 29.7111 23.9066 30.0312C23.8461 30.0605 23.7857 30.0898 23.7234 30.1199C21.9831 30.9239 19.8536 30.4854 18.1058 29.9141C18.0549 29.8975 18.0041 29.8809 17.9517 29.8638C14.4835 28.7096 11.2236 26.5904 8.55499 24.1133C8.48977 24.0535 8.42453 23.9936 8.3593 23.9338C6.86649 22.5592 6.86649 22.5592 6.27533 21.8043C6.13688 21.6328 5.9884 21.4724 5.83771 21.3118C5.48816 20.9359 5.17453 20.5369 4.86359 20.1289C4.83034 20.0857 4.7971 20.0425 4.76285 19.998C3.41035 18.2381 2.25281 16.357 1.34796 14.3281C1.32017 14.2673 1.29237 14.2065 1.26373 14.1439C0.281847 11.9373 -0.532393 9.2781 0.307922 6.90136C0.669735 6.0216 1.30694 5.39924 1.97086 4.74146C2.15054 4.56296 2.32719 4.38522 2.49054 4.1914C3.79506 2.65825 5.57511 1.44072 7.5003 2.78515ZM4.6878 4.54297C4.3433 4.86973 4.00724 5.20524 3.6704 5.53986C3.56264 5.64665 3.45457 5.75312 3.34619 5.85927C3.18826 6.01396 3.03135 6.16961 2.8746 6.3255C2.82662 6.37215 2.77864 6.4188 2.7292 6.46687C2.01037 7.18835 1.74214 8.04771 1.74367 9.05016C1.75826 10.0013 1.99647 10.9079 2.28546 11.8086C2.3028 11.8634 2.32013 11.9181 2.33799 11.9746C2.97084 13.9401 3.98156 15.8007 5.15655 17.4922C5.18145 17.5282 5.20635 17.5641 5.232 17.6012C5.79514 18.4114 6.39663 19.1979 7.03156 19.9531C7.06988 19.9989 7.06988 19.9989 7.10897 20.0456C7.9155 21.0071 8.76882 21.971 9.72824 22.7835C9.87386 22.9084 10.0142 23.0385 10.1553 23.1685C10.4723 23.4565 10.7968 23.731 11.1331 23.9961C11.174 24.0286 11.2149 24.061 11.257 24.0945C14.186 26.4089 18.2966 29.0678 22.2073 28.7422C22.9923 28.628 23.6907 28.1507 24.1911 27.5497C24.3913 27.3186 24.6048 27.1036 24.8225 26.8892C24.8579 26.8543 24.8933 26.8194 24.9297 26.7834C25.0775 26.6377 25.2255 26.4922 25.374 26.3473C25.4836 26.2402 25.5925 26.1326 25.7014 26.0249C25.7345 25.9929 25.7676 25.9609 25.8017 25.9279C26.1294 25.6024 26.4044 25.248 26.4444 24.7761C26.4227 23.922 25.3671 23.1603 24.7999 22.5882C24.7656 22.5537 24.7314 22.5192 24.6961 22.4836C24.5156 22.3014 24.3348 22.1195 24.1539 21.9377C24.0056 21.7886 23.8577 21.6391 23.7102 21.4893C23.53 21.3062 23.3491 21.1238 23.1677 20.942C23.0994 20.8733 23.0314 20.8044 22.9636 20.7352C22.376 20.1062 22.376 20.1062 21.5921 19.8267C21.0124 19.8519 20.6479 20.26 20.2689 20.6521C20.1661 20.7566 20.0633 20.861 19.9605 20.9655C19.8003 21.1293 19.6402 21.2934 19.4804 21.4576C19.325 21.6169 19.169 21.7754 19.0128 21.9339C18.9424 22.0069 18.9424 22.0069 18.8705 22.0815C18.5288 22.4276 18.1611 22.7463 17.6826 22.875C17.0814 22.8767 16.6286 22.6376 16.1136 22.3555C16.0462 22.3192 16.0462 22.3192 15.9775 22.2823C14.7348 21.6092 13.6014 20.7456 12.5632 19.7888C12.4446 19.6806 12.3242 19.5756 12.2027 19.4709C11.9416 19.2429 11.6961 19.0013 11.4517 18.7556C11.4098 18.7139 11.3678 18.6722 11.3246 18.6292C11.0533 18.3574 10.7973 18.0764 10.5472 17.7852C10.4929 17.7237 10.4386 17.6624 10.3842 17.6011C7.6076 14.4416 7.6076 14.4416 7.58636 12.7344C7.66764 12.3059 7.9088 12.01 8.21808 11.717C8.2651 11.6709 8.2651 11.6709 8.31306 11.6238C8.483 11.4585 8.65787 11.3005 8.83743 11.1458C9.11893 10.9013 9.38265 10.6402 9.6463 10.3767C9.69434 10.3294 9.74238 10.2821 9.79187 10.2333C10.421 9.62818 10.421 9.62818 10.6644 8.82031C10.5808 8.05463 9.66959 7.40501 9.15306 6.88695C9.1152 6.84892 9.07733 6.81089 9.03832 6.7717C8.83862 6.57113 8.63875 6.37071 8.43873 6.17044C8.23285 5.96424 8.02752 5.75749 7.82231 5.55062C7.66351 5.39073 7.50432 5.23124 7.34502 5.07184C7.26911 4.99576 7.19335 4.91954 7.11775 4.84316C7.01221 4.73661 6.90612 4.63064 6.79988 4.52478C6.7691 4.49346 6.73832 4.46214 6.70661 4.42987C5.99807 3.72922 5.33787 3.93737 4.6878 4.54297Z" fill="#6A52E0"/>
</g>
<defs>
<clipPath id="clip0_327_76">
<rect width="30" height="30" fill="white" transform="translate(0 0.5)"/>
</clipPath>
</defs>
</svg>
