<svg width="28" height="29" viewBox="0 0 28 29" fill="none" xmlns="http://www.w3.org/2000/svg">
<g clip-path="url(#clip0_156_746)">
<path d="M6.5 12.0999C9.53757 12.0999 12 9.63742 12 6.59985C12 3.56229 9.53757 1.09985 6.5 1.09985C3.46243 1.09985 1 3.56229 1 6.59985C1 9.63742 3.46243 12.0999 6.5 12.0999Z" stroke="#6A52E0" stroke-width="1.5" stroke-linecap="round" stroke-linejoin="round"/>
<path d="M21.5 12.0999C24.5376 12.0999 27 9.63742 27 6.59985C27 3.56229 24.5376 1.09985 21.5 1.09985C18.4624 1.09985 16 3.56229 16 6.59985C16 9.63742 18.4624 12.0999 21.5 12.0999Z" stroke="#6A52E0" stroke-width="1.5" stroke-linecap="round" stroke-linejoin="round"/>
<path d="M6.5 27.0999C9.53757 27.0999 12 24.6374 12 21.5999C12 18.5623 9.53757 16.0999 6.5 16.0999C3.46243 16.0999 1 18.5623 1 21.5999C1 24.6374 3.46243 27.0999 6.5 27.0999Z" stroke="#6A52E0" stroke-width="1.5" stroke-linecap="round" stroke-linejoin="round"/>
<path d="M21.5 27.0999C24.5376 27.0999 27 24.6374 27 21.5999C27 18.5623 24.5376 16.0999 21.5 16.0999C18.4624 16.0999 16 18.5623 16 21.5999C16 24.6374 18.4624 27.0999 21.5 27.0999Z" stroke="#6A52E0" stroke-width="1.5" stroke-linecap="round" stroke-linejoin="round"/>
</g>
<defs>
<clipPath id="clip0_156_746">
<rect width="28" height="28" fill="white" transform="translate(0 0.0998535)"/>
</clipPath>
</defs>
</svg>
