<svg width="32" height="33" viewBox="0 0 32 33" fill="none" xmlns="http://www.w3.org/2000/svg">
<g clip-path="url(#clip0_295_53)">
<path d="M23.3329 28.6509C19.0739 28.6509 15.9995 25.1348 15.9996 19.9287C16.0269 12.3645 21.7133 7.01643 29.9167 5.98938C30.6778 5.89409 30.9713 6.9484 30.2704 7.26004C27.1227 8.65969 25.5329 10.4358 25.3276 12.1938C25.1742 13.5072 25.8882 14.6577 26.7847 14.8731C29.1089 15.4317 30.6662 18.3261 30.6662 21.3175C30.6662 25.3676 27.383 28.6509 23.3329 28.6509Z" fill="white"/>
<path d="M7.33287 28.6509C3.07392 28.6509 -0.000468254 25.1348 -0.000365257 19.9287C0.0269108 12.3645 5.71329 7.01643 13.9167 5.98938C14.6778 5.89409 14.9713 6.9484 14.2704 7.26004C11.1227 8.65969 9.53292 10.4358 9.32758 12.1938C9.17416 13.5072 9.88816 14.6577 10.7847 14.8731C13.1089 15.4317 14.6662 18.3261 14.6662 21.3175C14.6662 25.3676 11.383 28.6509 7.33287 28.6509Z" fill="white"/>
</g>
<defs>
<clipPath id="clip0_295_53">
<rect width="32" height="32" fill="white" transform="matrix(-1 0 0 -1 32 32.6509)"/>
</clipPath>
</defs>
</svg>
