<svg width="1920" height="849" viewBox="0 0 1920 849" fill="none" xmlns="http://www.w3.org/2000/svg">
<g clip-path="url(#clip0_824_228)">
<path d="M48.3873 802.805L44.4173 805.944L40.4453 809.083V802.805V796.527L44.4173 799.666L48.3873 802.805Z" fill="#6A52E0"/>
<path d="M71.7057 802.805L67.7346 805.944L63.7637 809.083V802.805V796.527L67.7346 799.666L71.7057 802.805Z" fill="#6A52E0"/>
<path d="M95.0221 802.805L91.0511 805.944L87.0801 809.083V802.805V796.527L91.0511 799.666L95.0221 802.805Z" fill="#6A52E0"/>
<path d="M118.34 802.805L114.369 805.944L110.398 809.083V802.805V796.527L114.369 799.666L118.34 802.805Z" fill="#6A52E0"/>
<path d="M141.657 802.805L137.686 805.944L133.715 809.083V802.805V796.527L137.686 799.666L141.657 802.805Z" fill="#6A52E0"/>
<path d="M1814.78 765.973C1814.57 767.1 1813.49 767.845 1812.36 767.637C1811.24 767.429 1810.49 766.347 1810.7 765.22C1810.91 764.093 1811.99 763.348 1813.12 763.556C1814.24 763.765 1814.99 764.846 1814.78 765.973Z" fill="#6A52E0"/>
<path d="M1830.84 765.973C1830.63 767.1 1829.55 767.845 1828.43 767.637C1827.3 767.429 1826.55 766.347 1826.76 765.22C1826.97 764.093 1828.05 763.348 1829.18 763.556C1830.31 763.765 1831.05 764.846 1830.84 765.973Z" fill="#6A52E0"/>
<path d="M1846.9 765.973C1846.7 767.1 1845.61 767.845 1844.49 767.637C1843.36 767.429 1842.62 766.347 1842.82 765.22C1843.03 764.093 1844.11 763.348 1845.24 763.556C1846.37 763.765 1847.11 764.846 1846.9 765.973Z" fill="#6A52E0"/>
<path d="M1862.97 765.973C1862.76 767.1 1861.68 767.845 1860.55 767.637C1859.42 767.429 1858.68 766.347 1858.89 765.22C1859.09 764.093 1860.18 763.348 1861.3 763.556C1862.43 763.765 1863.18 764.846 1862.97 765.973Z" fill="#6A52E0"/>
<path d="M1879.03 765.973C1878.82 767.1 1877.74 767.845 1876.61 767.637C1875.49 767.429 1874.74 766.347 1874.95 765.22C1875.16 764.093 1876.24 763.348 1877.37 763.556C1878.49 763.765 1879.24 764.846 1879.03 765.973Z" fill="#6A52E0"/>
<path d="M1814.78 779.505C1814.57 780.632 1813.49 781.377 1812.36 781.169C1811.24 780.961 1810.49 779.879 1810.7 778.752C1810.91 777.625 1811.99 776.88 1813.12 777.088C1814.24 777.296 1814.99 778.378 1814.78 779.505Z" fill="#6A52E0"/>
<path d="M1830.84 779.505C1830.63 780.632 1829.55 781.377 1828.43 781.169C1827.3 780.961 1826.55 779.879 1826.76 778.752C1826.97 777.625 1828.05 776.88 1829.18 777.088C1830.31 777.296 1831.05 778.378 1830.84 779.505Z" fill="#6A52E0"/>
<path d="M1846.9 779.505C1846.7 780.632 1845.61 781.377 1844.49 781.169C1843.36 780.961 1842.62 779.879 1842.82 778.752C1843.03 777.625 1844.11 776.88 1845.24 777.088C1846.37 777.296 1847.11 778.378 1846.9 779.505Z" fill="#6A52E0"/>
<path d="M1862.97 779.505C1862.76 780.632 1861.68 781.377 1860.55 781.169C1859.42 780.961 1858.68 779.879 1858.89 778.752C1859.09 777.625 1860.18 776.88 1861.3 777.088C1862.43 777.296 1863.18 778.378 1862.97 779.505Z" fill="#6A52E0"/>
<path d="M1879.03 779.505C1878.82 780.632 1877.74 781.377 1876.61 781.169C1875.49 780.961 1874.74 779.879 1874.95 778.752C1875.16 777.625 1876.24 776.88 1877.37 777.088C1878.49 777.296 1879.24 778.378 1879.03 779.505Z" fill="#6A52E0"/>
<path d="M1814.78 793.034C1814.57 794.161 1813.49 794.906 1812.36 794.698C1811.24 794.49 1810.49 793.408 1810.7 792.281C1810.91 791.154 1811.99 790.409 1813.12 790.617C1814.24 790.825 1814.99 791.907 1814.78 793.034Z" fill="#6A52E0"/>
<path d="M1830.84 793.034C1830.63 794.161 1829.55 794.906 1828.43 794.698C1827.3 794.49 1826.55 793.408 1826.76 792.281C1826.97 791.154 1828.05 790.409 1829.18 790.617C1830.31 790.825 1831.05 791.907 1830.84 793.034Z" fill="#6A52E0"/>
<path d="M1846.9 793.034C1846.7 794.161 1845.61 794.906 1844.49 794.698C1843.36 794.49 1842.62 793.408 1842.82 792.281C1843.03 791.154 1844.11 790.409 1845.24 790.617C1846.37 790.825 1847.11 791.907 1846.9 793.034Z" fill="#6A52E0"/>
<path d="M1862.97 793.034C1862.76 794.161 1861.68 794.906 1860.55 794.698C1859.42 794.49 1858.68 793.408 1858.89 792.281C1859.09 791.154 1860.18 790.409 1861.3 790.617C1862.43 790.825 1863.18 791.907 1862.97 793.034Z" fill="#6A52E0"/>
<path d="M1879.03 793.034C1878.82 794.161 1877.74 794.906 1876.61 794.698C1875.49 794.49 1874.74 793.408 1874.95 792.281C1875.16 791.154 1876.24 790.409 1877.37 790.617C1878.49 790.825 1879.24 791.907 1879.03 793.034Z" fill="#6A52E0"/>
<path d="M1814.78 806.565C1814.57 807.692 1813.49 808.437 1812.36 808.229C1811.24 808.021 1810.49 806.939 1810.7 805.812C1810.91 804.685 1811.99 803.94 1813.12 804.148C1814.24 804.356 1814.99 805.438 1814.78 806.565Z" fill="#6A52E0"/>
<path d="M1830.84 806.565C1830.63 807.692 1829.55 808.437 1828.43 808.229C1827.3 808.021 1826.55 806.939 1826.76 805.812C1826.97 804.685 1828.05 803.94 1829.18 804.148C1830.31 804.356 1831.05 805.438 1830.84 806.565Z" fill="#6A52E0"/>
<path d="M1846.9 806.565C1846.7 807.692 1845.61 808.437 1844.49 808.229C1843.36 808.021 1842.62 806.939 1842.82 805.812C1843.03 804.685 1844.11 803.94 1845.24 804.148C1846.37 804.356 1847.11 805.438 1846.9 806.565Z" fill="#6A52E0"/>
<path d="M1862.97 806.565C1862.76 807.692 1861.68 808.437 1860.55 808.229C1859.42 808.021 1858.68 806.939 1858.89 805.812C1859.09 804.685 1860.18 803.94 1861.3 804.148C1862.43 804.356 1863.18 805.438 1862.97 806.565Z" fill="#6A52E0"/>
<path d="M1879.03 806.565C1878.82 807.692 1877.74 808.437 1876.61 808.229C1875.49 808.021 1874.74 806.939 1874.95 805.812C1875.16 804.685 1876.24 803.94 1877.37 804.148C1878.49 804.356 1879.24 805.438 1879.03 806.565Z" fill="#6A52E0"/>
<path d="M1894.43 70.1178L1875.24 86.7602L1858.59 67.5684L1839.57 84.0608L1856.22 103.253L1837.03 119.895L1853.52 138.915L1872.71 122.272L1889.35 141.464L1908.37 124.97L1891.73 105.778L1910.92 89.1375L1894.43 70.1178Z" stroke="#6A52E0" stroke-width="1.4438" stroke-miterlimit="10"/>
<path d="M34.9606 161.178H5.89961C5.08661 161.178 4.5786 160.298 4.9846 159.593L19.5146 134.426L34.0446 109.259C34.4516 108.555 35.4676 108.555 35.8746 109.259L50.4046 134.426L64.9346 159.593C65.3416 160.297 64.8326 161.178 64.0196 161.178H34.9606Z" fill="#DCFD7D"/>
<path d="M19.1364 169.353H-9.92462C-10.7376 169.353 -11.2456 168.473 -10.8396 167.768L3.69038 142.601L18.2204 117.434C18.6274 116.73 19.6434 116.73 20.0504 117.434L34.5804 142.601L49.1104 167.768C49.5174 168.472 49.0084 169.353 48.1954 169.353H19.1364Z" stroke="#6A52E0" stroke-width="1.4268" stroke-miterlimit="10"/>
</g>
<defs>
<clipPath id="clip0_824_228">
<rect width="1920" height="849" fill="white"/>
</clipPath>
</defs>
</svg>
