<svg width="24" height="24" viewBox="0 0 24 24" fill="none" xmlns="http://www.w3.org/2000/svg">
<g clip-path="url(#clip0_834_29)">
<path d="M22.929 14.7941L15.7881 11.9998L22.9911 9.20557C23.3637 9.08138 23.6121 8.64672 23.55 8.27415C23.4258 7.46691 23.0532 6.72177 22.6186 6.03873C22.246 5.29359 21.7492 4.67264 21.1283 4.11378C20.8178 3.8654 20.3832 3.8654 20.0727 4.11378L14.0495 8.95719L15.2914 1.31951C15.4156 0.884855 15.1672 0.512285 14.7946 0.388093C14.0495 0.0776179 13.1801 -0.0465712 12.3729 0.0155238C11.5657 -0.0465712 10.6963 0.0776179 9.95119 0.388093C9.57862 0.512285 9.33023 0.946945 9.45442 1.31951L10.6963 8.95719L4.67312 4.11378C4.36264 3.80331 3.92798 3.80331 3.6175 4.11378C2.99655 4.61054 2.49979 5.29359 2.12722 6.03873C1.63046 6.72177 1.31999 7.46691 1.1337 8.27415C1.07161 8.70881 1.31999 9.08138 1.69256 9.20557L8.77137 11.9998L1.56837 14.7941C1.1958 14.9183 0.947415 15.353 1.00951 15.7255C1.1337 16.5328 1.44418 17.2779 1.94094 17.961C2.31351 18.7061 2.81027 19.327 3.43122 19.8859C3.74169 20.1343 4.17636 20.1343 4.48683 19.8859L10.5101 15.0425L9.26814 22.6802C9.14395 23.1148 9.39233 23.4874 9.7649 23.6737C10.5722 23.9221 11.3794 24.0463 12.1866 23.9842C12.9939 24.0463 13.8632 23.9221 14.6083 23.6737C14.9809 23.5495 15.2293 23.1148 15.1051 22.6802L13.8632 15.0425L19.8864 19.8859C20.1969 20.1343 20.6315 20.1343 21.0041 19.8859C21.6251 19.3891 22.1218 18.7682 22.4944 18.0231C22.9911 17.34 23.3016 16.5949 23.4879 15.7876C23.55 15.2909 23.3637 14.9183 22.929 14.7941Z" fill="black"/>
</g>
<defs>
<clipPath id="clip0_834_29">
<rect width="24" height="24" fill="white"/>
</clipPath>
</defs>
</svg>
