<svg width="1851" height="909" viewBox="0 0 1851 909" fill="none" xmlns="http://www.w3.org/2000/svg">
<path d="M1786.3 866.053C1786.09 867.18 1785.01 867.925 1783.88 867.717C1782.76 867.509 1782.01 866.427 1782.22 865.3C1782.43 864.173 1783.51 863.428 1784.64 863.636C1785.76 863.845 1786.51 864.926 1786.3 866.053Z" fill="#6A52E0"/>
<path d="M1802.36 866.053C1802.15 867.18 1801.07 867.925 1799.94 867.717C1798.82 867.509 1798.07 866.427 1798.28 865.3C1798.49 864.173 1799.57 863.428 1800.7 863.636C1801.82 863.845 1802.57 864.926 1802.36 866.053Z" fill="#6A52E0"/>
<path d="M1818.43 866.053C1818.22 867.18 1817.14 867.925 1816.01 867.717C1814.88 867.509 1814.14 866.427 1814.34 865.3C1814.55 864.173 1815.63 863.428 1816.76 863.636C1817.89 863.845 1818.63 864.926 1818.43 866.053Z" fill="#6A52E0"/>
<path d="M1834.49 866.053C1834.28 867.18 1833.2 867.925 1832.07 867.717C1830.94 867.509 1830.2 866.427 1830.41 865.3C1830.61 864.173 1831.7 863.428 1832.82 863.636C1833.95 863.845 1834.7 864.926 1834.49 866.053Z" fill="#6A52E0"/>
<path d="M1850.55 866.053C1850.34 867.18 1849.26 867.925 1848.13 867.717C1847.01 867.509 1846.26 866.427 1846.47 865.3C1846.68 864.173 1847.76 863.428 1848.89 863.636C1850.01 863.845 1850.76 864.926 1850.55 866.053Z" fill="#6A52E0"/>
<path d="M1786.3 879.585C1786.09 880.712 1785.01 881.457 1783.88 881.249C1782.76 881.041 1782.01 879.959 1782.22 878.832C1782.43 877.705 1783.51 876.96 1784.64 877.168C1785.76 877.376 1786.51 878.458 1786.3 879.585Z" fill="#6A52E0"/>
<path d="M1802.36 879.585C1802.15 880.712 1801.07 881.457 1799.94 881.249C1798.82 881.041 1798.07 879.959 1798.28 878.832C1798.49 877.705 1799.57 876.96 1800.7 877.168C1801.82 877.376 1802.57 878.458 1802.36 879.585Z" fill="#6A52E0"/>
<path d="M1818.43 879.585C1818.22 880.712 1817.14 881.457 1816.01 881.249C1814.88 881.041 1814.14 879.959 1814.34 878.832C1814.55 877.705 1815.63 876.96 1816.76 877.168C1817.89 877.376 1818.63 878.458 1818.43 879.585Z" fill="#6A52E0"/>
<path d="M1834.49 879.585C1834.28 880.712 1833.2 881.457 1832.07 881.249C1830.94 881.041 1830.2 879.959 1830.41 878.832C1830.61 877.705 1831.7 876.96 1832.82 877.168C1833.95 877.376 1834.7 878.458 1834.49 879.585Z" fill="#6A52E0"/>
<path d="M1850.55 879.585C1850.34 880.712 1849.26 881.457 1848.13 881.249C1847.01 881.041 1846.26 879.959 1846.47 878.832C1846.68 877.705 1847.76 876.96 1848.89 877.168C1850.01 877.376 1850.76 878.458 1850.55 879.585Z" fill="#6A52E0"/>
<path d="M1786.3 893.116C1786.09 894.243 1785.01 894.988 1783.88 894.78C1782.76 894.572 1782.01 893.49 1782.22 892.363C1782.43 891.236 1783.51 890.491 1784.64 890.699C1785.76 890.907 1786.51 891.989 1786.3 893.116Z" fill="#6A52E0"/>
<path d="M1802.36 893.116C1802.15 894.243 1801.07 894.988 1799.94 894.78C1798.82 894.572 1798.07 893.49 1798.28 892.363C1798.49 891.236 1799.57 890.491 1800.7 890.699C1801.82 890.907 1802.57 891.989 1802.36 893.116Z" fill="#6A52E0"/>
<path d="M1818.43 893.116C1818.22 894.243 1817.14 894.988 1816.01 894.78C1814.88 894.572 1814.14 893.49 1814.34 892.363C1814.55 891.236 1815.63 890.491 1816.76 890.699C1817.89 890.907 1818.63 891.989 1818.43 893.116Z" fill="#6A52E0"/>
<path d="M1834.49 893.116C1834.28 894.243 1833.2 894.988 1832.07 894.78C1830.94 894.572 1830.2 893.49 1830.41 892.363C1830.61 891.236 1831.7 890.491 1832.82 890.699C1833.95 890.907 1834.7 891.989 1834.49 893.116Z" fill="#6A52E0"/>
<path d="M1850.55 893.116C1850.34 894.243 1849.26 894.988 1848.13 894.78C1847.01 894.572 1846.26 893.49 1846.47 892.363C1846.68 891.236 1847.76 890.491 1848.89 890.699C1850.01 890.907 1850.76 891.989 1850.55 893.116Z" fill="#6A52E0"/>
<path d="M1786.3 906.647C1786.09 907.774 1785.01 908.519 1783.88 908.311C1782.76 908.103 1782.01 907.021 1782.22 905.894C1782.43 904.767 1783.51 904.022 1784.64 904.23C1785.76 904.438 1786.51 905.52 1786.3 906.647Z" fill="#6A52E0"/>
<path d="M1802.36 906.647C1802.15 907.774 1801.07 908.519 1799.94 908.311C1798.82 908.103 1798.07 907.021 1798.28 905.894C1798.49 904.767 1799.57 904.022 1800.7 904.23C1801.82 904.438 1802.57 905.52 1802.36 906.647Z" fill="#6A52E0"/>
<path d="M1818.43 906.647C1818.22 907.774 1817.14 908.519 1816.01 908.311C1814.88 908.103 1814.14 907.021 1814.34 905.894C1814.55 904.767 1815.63 904.022 1816.76 904.23C1817.89 904.438 1818.63 905.52 1818.43 906.647Z" fill="#6A52E0"/>
<path d="M1834.49 906.647C1834.28 907.774 1833.2 908.519 1832.07 908.311C1830.94 908.103 1830.2 907.021 1830.41 905.894C1830.61 904.767 1831.7 904.022 1832.82 904.23C1833.95 904.438 1834.7 905.52 1834.49 906.647Z" fill="#6A52E0"/>
<path d="M1850.55 906.647C1850.34 907.774 1849.26 908.519 1848.13 908.311C1847.01 908.103 1846.26 907.021 1846.47 905.894C1846.68 904.767 1847.76 904.022 1848.89 904.23C1850.01 904.438 1850.76 905.52 1850.55 906.647Z" fill="#6A52E0"/>
<path d="M59.4019 4.54946L40.21 21.1919L23.5676 2L4.54786 18.4924L21.1919 37.6843L2 54.3267L18.4924 73.3464L37.6843 56.704L54.3267 75.8959L73.3448 59.4019L56.7024 40.21L75.8943 23.5691L59.4019 4.54946Z" stroke="#6A52E0" stroke-width="1.4438" stroke-miterlimit="10"/>
</svg>
