<svg width="1920" height="1042" viewBox="0 0 1920 1042" fill="none" xmlns="http://www.w3.org/2000/svg">
<g clip-path="url(#clip0_180_308)">
<path d="M192.54 525.786L178.767 528.886L178.159 526.183L189.23 523.691L186.438 511.265L198.859 508.47L195.88 495.216L207.474 492.606L204.681 480.18L217.102 477.384L214.428 465.482L217.13 464.874L220.412 479.479L207.991 482.275L210.783 494.701L199.19 497.311L202.169 510.565L189.747 513.36L192.54 525.786Z" fill="#DCFD7D"/>
<path d="M1694.52 520.478C1698.3 516.696 1698.3 510.564 1694.52 506.782C1690.74 502.999 1684.61 502.999 1680.83 506.782C1677.05 510.564 1677.05 516.696 1680.83 520.478C1684.61 524.26 1690.74 524.26 1694.52 520.478Z" stroke="#DCFD7D" stroke-width="1.7071" stroke-miterlimit="10"/>
<path d="M1884.38 909.51H1881.77V916.062H1884.38V909.51Z" fill="#DCFD7D"/>
<path d="M1884.38 909.51H1881.77V916.062H1884.38V909.51Z" fill="#DCFD7D"/>
<path d="M1884.38 1017.6H1881.77V1024.16H1884.38V1017.6Z" fill="#DCFD7D"/>
<path d="M1832.33 965.522H1825.78V968.143H1832.33V965.522Z" fill="#DCFD7D"/>
<path d="M1832.33 965.522H1825.78V968.143H1832.33V965.522Z" fill="#DCFD7D"/>
<path d="M1843.49 925.398L1841.64 927.251L1846.27 931.882L1848.12 930.03L1843.49 925.398Z" fill="#DCFD7D"/>
<path d="M1843.49 925.398L1841.64 927.251L1846.27 931.882L1848.12 930.03L1843.49 925.398Z" fill="#DCFD7D"/>
<path d="M1919.89 1001.84L1918.04 1003.69L1922.67 1008.32L1924.52 1006.47L1919.89 1001.84Z" fill="#DCFD7D"/>
<path d="M1846.26 1001.81L1841.63 1006.44L1843.49 1008.29L1848.12 1003.66L1846.26 1001.81Z" fill="#DCFD7D"/>
<path d="M1846.26 1001.81L1841.63 1006.44L1843.49 1008.29L1848.12 1003.66L1846.26 1001.81Z" fill="#DCFD7D"/>
<path d="M1922.65 925.373L1918.02 930.005L1919.88 931.857L1924.51 927.225L1922.65 925.373Z" fill="#DCFD7D"/>
<path d="M1871.3 910.714L1868.75 911.311L1870.24 917.69L1872.79 917.093L1871.3 910.714Z" fill="#DCFD7D"/>
<path d="M1871.3 910.714L1868.75 911.311L1870.24 917.69L1872.79 917.093L1871.3 910.714Z" fill="#DCFD7D"/>
<path d="M1895.93 1015.96L1893.38 1016.56L1894.87 1022.94L1897.42 1022.34L1895.93 1015.96Z" fill="#DCFD7D"/>
<path d="M1833.35 977.127L1826.98 978.621L1827.57 981.172L1833.95 979.678L1833.35 977.127Z" fill="#DCFD7D"/>
<path d="M1833.35 977.127L1826.98 978.621L1827.57 981.172L1833.95 979.678L1833.35 977.127Z" fill="#DCFD7D"/>
<path d="M1835.08 935.484L1833.7 937.71L1839.27 941.163L1840.65 938.937L1835.08 935.484Z" fill="#DCFD7D"/>
<path d="M1835.08 935.484L1833.7 937.71L1839.27 941.163L1840.65 938.937L1835.08 935.484Z" fill="#DCFD7D"/>
<path d="M1855.19 1009.26L1851.73 1014.83L1853.96 1016.21L1857.42 1010.65L1855.19 1009.26Z" fill="#DCFD7D"/>
<path d="M1855.19 1009.26L1851.73 1014.83L1853.96 1016.21L1857.42 1010.65L1855.19 1009.26Z" fill="#DCFD7D"/>
<path d="M1912.16 917.437L1908.7 923.003L1910.93 924.385L1914.38 918.819L1912.16 917.437Z" fill="#DCFD7D"/>
<path d="M1863.17 913.057L1860.73 914.024L1863.15 920.113L1865.59 919.147L1863.17 913.057Z" fill="#DCFD7D"/>
<path d="M1863.17 913.057L1860.73 914.024L1863.15 920.113L1865.59 919.147L1863.17 913.057Z" fill="#DCFD7D"/>
<path d="M1903.03 1013.53L1900.59 1014.5L1903.01 1020.59L1905.45 1019.62L1903.03 1013.53Z" fill="#DCFD7D"/>
<path d="M1835.44 984.349L1829.35 986.765L1830.32 989.2L1836.41 986.784L1835.44 984.349Z" fill="#DCFD7D"/>
<path d="M1835.44 984.349L1829.35 986.765L1830.32 989.2L1836.41 986.784L1835.44 984.349Z" fill="#DCFD7D"/>
<path d="M1830.99 942.887L1829.95 945.292L1835.96 947.888L1837 945.483L1830.99 942.887Z" fill="#DCFD7D"/>
<path d="M1830.99 942.887L1829.95 945.292L1835.96 947.888L1837 945.483L1830.99 942.887Z" fill="#DCFD7D"/>
<path d="M1861.75 1012.93L1859.16 1018.95L1861.56 1019.98L1864.16 1013.97L1861.75 1012.93Z" fill="#DCFD7D"/>
<path d="M1861.75 1012.93L1859.16 1018.95L1861.56 1019.98L1864.16 1013.97L1861.75 1012.93Z" fill="#DCFD7D"/>
<path d="M1904.58 913.696L1901.98 919.71L1904.39 920.749L1906.99 914.734L1904.58 913.696Z" fill="#DCFD7D"/>
<path d="M1851.45 919.025L1849.3 920.521L1853.04 925.898L1855.19 924.403L1851.45 919.025Z" fill="#DCFD7D"/>
<path d="M1851.45 919.025L1849.3 920.521L1853.04 925.898L1855.19 924.403L1851.45 919.025Z" fill="#DCFD7D"/>
<path d="M1913.15 1007.77L1911 1009.26L1914.74 1014.64L1916.89 1013.14L1913.15 1007.77Z" fill="#DCFD7D"/>
<path d="M1840.67 994.727L1835.3 998.468L1836.79 1000.62L1842.17 996.878L1840.67 994.727Z" fill="#DCFD7D"/>
<path d="M1840.67 994.727L1835.3 998.468L1836.79 1000.62L1842.17 996.878L1840.67 994.727Z" fill="#DCFD7D"/>
<path d="M1826.92 955.401L1826.46 957.98L1832.91 959.138L1833.37 956.558L1826.92 955.401Z" fill="#DCFD7D"/>
<path d="M1826.92 955.401L1826.46 957.98L1832.91 959.138L1833.37 956.558L1826.92 955.401Z" fill="#DCFD7D"/>
<path d="M1872.81 1016.55L1871.65 1023L1874.23 1023.46L1875.38 1017.01L1872.81 1016.55Z" fill="#DCFD7D"/>
<path d="M1872.81 1016.55L1871.65 1023L1874.23 1023.46L1875.38 1017.01L1872.81 1016.55Z" fill="#DCFD7D"/>
<path d="M1891.91 910.168L1890.75 916.617L1893.33 917.079L1894.48 910.631L1891.91 910.168Z" fill="#DCFD7D"/>
<path d="M1847.08 2.79653L1827.9 19.4389L1811.27 0.24707L1792.26 16.7395L1808.89 35.9313L1789.71 52.5738L1806.19 71.5935L1825.38 54.951L1842.01 74.1429L1861.02 57.649L1844.38 38.4571L1863.57 21.8162L1847.08 2.79653Z" stroke="#DCFD7D" stroke-width="1.4438" stroke-miterlimit="10"/>
<path d="M45.9234 111.405H16.8776C16.065 111.405 15.5573 110.526 15.963 109.821L30.4855 84.6535L45.0079 59.4865C45.4147 58.7825 46.4302 58.7825 46.837 59.4865L61.3594 84.6535L75.8818 109.821C76.2886 110.525 75.7799 111.405 74.9673 111.405H45.9234Z" fill="#DCFD7D"/>
<path d="M30.1031 119.58H1.05725C0.244672 119.58 -0.263057 118.7 0.142732 117.995L14.6652 92.8283L29.1876 67.6613C29.5944 66.9573 30.6099 66.9573 31.0166 67.6613L45.5391 92.8283L60.0615 117.995C60.4683 118.699 59.9596 119.58 59.147 119.58H30.1031Z" stroke="white" stroke-width="1.4268" stroke-miterlimit="10"/>
<path d="M64.0938 1022.93L79.0188 1027L74.9476 1041.93" stroke="#DCFD7D" stroke-width="2" stroke-miterlimit="10"/>
<path d="M73.5703 1017.51L88.4953 1021.59L84.4241 1036.52" stroke="#DCFD7D" stroke-width="2" stroke-miterlimit="10"/>
<path d="M83.0312 1012.1L97.9563 1016.17L93.8851 1031.11" stroke="#DCFD7D" stroke-width="2" stroke-miterlimit="10"/>
<path d="M92.5 1006.69L107.425 1010.76L103.354 1025.69" stroke="#DCFD7D" stroke-width="2" stroke-miterlimit="10"/>
<path d="M101.977 1001.27L116.902 1005.35L112.83 1020.28" stroke="#DCFD7D" stroke-width="2" stroke-miterlimit="10"/>
</g>
<defs>
<clipPath id="clip0_180_308">
<rect width="1920" height="1042" fill="white"/>
</clipPath>
</defs>
</svg>
