<svg width="20" height="20" viewBox="0 0 20 20" fill="none" xmlns="http://www.w3.org/2000/svg">
<path d="M5.5957 3.1081C5.74501 3.20605 5.87973 3.31413 6.01162 3.43215C6.04471 3.46167 6.04471 3.46167 6.07847 3.4918C6.44274 3.81953 6.79666 4.1576 7.15141 4.4946C7.25835 4.59616 7.36561 4.6974 7.47294 4.79858C7.55709 4.87802 7.641 4.95768 7.72485 5.03741C7.76425 5.0748 7.80373 5.1121 7.84331 5.14931C8.0524 5.34605 8.25024 5.54695 8.43299 5.7664C8.44885 5.78537 8.46471 5.80433 8.48105 5.82387C8.77014 6.1797 8.8814 6.59543 8.83192 7.03948C8.7638 7.43857 8.60604 7.72629 8.32475 8.02546C8.29899 8.05359 8.27322 8.08173 8.24668 8.11071C8.02743 8.34444 7.79526 8.56604 7.5629 8.78792C7.5316 8.81786 7.5003 8.84779 7.46806 8.87864C7.29096 9.04673 7.11066 9.20869 6.91961 9.36238C7.22409 10.023 7.62607 10.6153 8.11398 11.1672C8.12917 11.1845 8.14437 11.2017 8.16002 11.2195C8.5314 11.64 8.92169 12.0389 9.32811 12.4289C9.35841 12.4582 9.3887 12.4875 9.41991 12.5176C9.62933 12.7171 9.84986 12.8964 10.0812 13.0723C10.125 13.1074 10.1687 13.1426 10.2122 13.178C10.7103 13.5783 11.2554 13.932 11.8288 14.2275C11.8529 14.2401 11.8769 14.2527 11.9017 14.2656C12.0209 14.3264 12.0209 14.3264 12.1527 14.3357C12.2422 14.3022 12.2892 14.2583 12.3564 14.1928C12.3819 14.1683 12.4073 14.1437 12.4336 14.1184C12.4745 14.0783 12.4745 14.0783 12.5162 14.0373C12.5447 14.0098 12.5732 13.9823 12.6026 13.9539C12.7245 13.8363 12.8458 13.7181 12.9672 13.5999C13.0559 13.5136 13.145 13.4276 13.2341 13.3417C13.2609 13.3154 13.2876 13.2891 13.3152 13.262C13.5622 13.0239 13.8374 12.7949 14.1693 12.6733C14.2029 12.6606 14.2365 12.6479 14.2711 12.6348C14.6926 12.5009 15.1575 12.5407 15.5612 12.7047C15.9591 12.908 16.2613 13.2175 16.5763 13.519C16.6326 13.5724 16.6889 13.6259 16.7452 13.6793C16.8626 13.7908 16.9797 13.9025 17.0967 14.0145C17.2459 14.1572 17.3957 14.2993 17.5458 14.4412C17.662 14.5513 17.7778 14.6617 17.8936 14.7722C17.9487 14.8247 18.0038 14.8771 18.0591 14.9294C18.609 15.4501 18.609 15.4501 18.7931 15.7796C18.8077 15.8048 18.8224 15.83 18.8375 15.8559C19.0552 16.2446 19.0305 16.7077 18.9019 17.1172C18.6978 17.6444 18.2322 18.0302 17.8205 18.4137C17.7426 18.4867 17.6648 18.5597 17.5871 18.6328C17.5392 18.6778 17.4912 18.7227 17.443 18.7675C17.307 18.8949 17.1788 19.0264 17.0549 19.1645C16.6258 19.6282 15.9572 19.9292 15.3153 19.9909C14.3983 20.033 13.555 19.913 12.6807 19.6567C12.6525 19.6485 12.6243 19.6403 12.5953 19.6318C11.1816 19.2115 9.81453 18.4878 8.60578 17.6847C8.58588 17.6715 8.56598 17.6583 8.54547 17.6447C8.40043 17.5482 8.25686 17.4499 8.11398 17.3505C8.09128 17.3347 8.06859 17.3189 8.0452 17.3027C7.75391 17.0995 7.4717 16.8896 7.19817 16.6652C7.10993 16.5937 7.02023 16.5257 6.92839 16.4585C6.5877 16.2022 6.27769 15.9047 5.97114 15.6125C5.91281 15.5577 5.85444 15.503 5.79604 15.4482C5.74571 15.4008 5.69537 15.3534 5.64507 15.3059C5.61101 15.2738 5.57689 15.2418 5.5427 15.2099C5.33151 15.0124 5.13425 14.8094 4.94932 14.5891C4.87349 14.4993 4.79401 14.4157 4.7109 14.332C4.52891 14.1431 4.36264 13.9455 4.1992 13.7421C4.16127 13.6949 4.1232 13.6478 4.08503 13.6007C3.719 13.149 3.38133 12.682 3.05547 12.2033C3.04077 12.1818 3.02608 12.1602 3.01094 12.138C2.92887 12.0167 2.85083 11.8934 2.77444 11.7688C2.75831 11.7428 2.74218 11.7167 2.72557 11.6898C1.74545 10.0976 0.610141 7.88768 1.13101 5.9856C1.27918 5.48224 1.53721 5.10141 1.90692 4.72141C1.9339 4.69367 1.9339 4.69367 1.96143 4.66537C2.17984 4.44225 2.40478 4.2253 2.63104 4.00941C2.70434 3.93934 2.77726 3.86892 2.85018 3.79849C3.50457 3.17086 3.50457 3.17086 3.93368 2.9953C3.97063 2.97979 4.00758 2.96428 4.04565 2.9483C4.54674 2.76289 5.1427 2.8592 5.5957 3.1081ZM3.22486 4.74792C3.13678 4.83139 3.04834 4.9145 2.95989 4.99761C2.90304 5.05149 2.8462 5.10538 2.78939 5.15931C2.76333 5.18369 2.73727 5.20807 2.71043 5.23319C2.23227 5.69006 1.9751 6.20068 1.96583 6.85174C1.97576 7.93007 2.38129 8.96042 2.84469 9.93057C2.85989 9.96269 2.87509 9.99481 2.89075 10.0279C3.24893 10.7795 3.68198 11.4938 4.17958 12.1699C4.19339 12.1888 4.2072 12.2076 4.22143 12.227C4.55244 12.6774 4.89703 13.1193 5.26857 13.5403C5.28354 13.5573 5.29852 13.5744 5.31395 13.592C5.51058 13.8164 5.71085 14.0364 5.91899 14.2511C5.98663 14.3219 6.05237 14.3934 6.11783 14.4659C6.27131 14.6333 6.43589 14.7895 6.60126 14.9461C6.6313 14.9748 6.66135 15.0035 6.6923 15.0331C6.84834 15.1814 7.00658 15.3248 7.17386 15.4615C7.25931 15.5315 7.3418 15.6044 7.42458 15.6772C7.6018 15.8307 7.7845 15.9738 7.97347 16.1138C8.02068 16.1493 8.06789 16.1848 8.11508 16.2204C8.4695 16.4861 8.8298 16.7414 9.20297 16.9828C9.22587 16.9977 9.24877 17.0125 9.27237 17.0278C10.8498 18.0411 13.1969 19.3856 15.1956 19.1041C15.606 19.0261 15.9094 18.912 16.2287 18.654C16.283 18.6136 16.283 18.6136 16.3385 18.5725C16.414 18.5085 16.472 18.4519 16.5357 18.379C16.6614 18.241 16.7959 18.1128 16.9325 17.9846C16.9552 17.9633 16.9778 17.942 17.0012 17.92C17.0961 17.8309 17.1912 17.7419 17.2866 17.6532C17.8149 17.1954 17.8149 17.1954 18.0356 16.5755C18.037 16.5467 18.0384 16.518 18.0399 16.4884C17.9877 16.2032 17.8083 15.9877 17.5964 15.7903C17.5599 15.7553 17.5599 15.7553 17.5228 15.7196C17.4432 15.6435 17.363 15.5681 17.2828 15.4926C17.2269 15.4395 17.1711 15.3863 17.1152 15.3332C16.9985 15.2222 16.8815 15.1115 16.7642 15.001C16.6143 14.8596 16.4649 14.7176 16.3158 14.5755C16.2006 14.4658 16.0852 14.3564 15.9697 14.2471C15.9145 14.1948 15.8594 14.1425 15.8044 14.0901C15.7274 14.0169 15.6501 13.9441 15.5727 13.8713C15.5502 13.8498 15.5277 13.8283 15.5045 13.8062C15.2971 13.6125 15.1023 13.488 14.8056 13.47C14.411 13.4853 14.1412 13.7799 13.884 14.0301C13.851 14.0618 13.8181 14.0936 13.7851 14.1252C13.6458 14.2591 13.5069 14.3934 13.3682 14.5278C13.283 14.6103 13.1975 14.6925 13.1119 14.7746C13.0639 14.8208 13.0162 14.8673 12.9686 14.9137C12.8116 15.0643 12.671 15.1855 12.4699 15.2783C12.4467 15.2893 12.4236 15.3003 12.3997 15.3117C12.0399 15.3691 11.7931 15.2444 11.4901 15.083C11.417 15.0448 11.3431 15.0089 11.2684 14.9737C10.8937 14.7951 10.5579 14.5796 10.2217 14.3424C10.1825 14.3151 10.1433 14.2878 10.1041 14.2605C9.86775 14.0943 9.63895 13.9205 9.41374 13.7408C9.39592 13.7269 9.37809 13.713 9.35973 13.6987C9.0317 13.4426 8.72988 13.1633 8.43014 12.8781C8.41108 12.86 8.39203 12.8419 8.37239 12.8232C8.16156 12.6226 7.95589 12.4196 7.7627 12.2033C7.7302 12.1683 7.69763 12.1333 7.665 12.0984C7.06465 11.4485 6.53089 10.7429 6.14266 9.95859C6.09744 9.86899 6.04922 9.78087 6.00098 9.69272C5.90582 9.49199 5.88998 9.25029 5.96826 9.04303C6.06283 8.87785 6.18356 8.75689 6.33079 8.63269C6.58003 8.41932 6.81836 8.19602 7.05574 7.97081C7.1287 7.90173 7.20202 7.833 7.27536 7.76428C7.32251 7.71963 7.36965 7.67495 7.41676 7.63026C7.43835 7.61013 7.45994 7.59 7.48219 7.56926C7.69756 7.36328 7.86962 7.15045 7.88126 6.85148C7.87535 6.54497 7.71644 6.37246 7.50323 6.15513C7.48474 6.13619 7.46626 6.11726 7.44721 6.09775C7.23979 5.88642 7.02628 5.68095 6.81175 5.47617C6.79088 5.45621 6.77 5.43625 6.74849 5.41569C6.63839 5.31044 6.52819 5.20529 6.41791 5.10021C6.30509 4.99268 6.1926 4.88485 6.08018 4.77694C5.99253 4.69292 5.90465 4.60914 5.8167 4.52541C5.77514 4.48576 5.73366 4.44603 5.69227 4.40621C5.24517 3.95123 5.24517 3.95123 4.64723 3.77029C4.05433 3.77842 3.61427 4.37829 3.22486 4.74792Z" fill="white"/>
<path d="M12.8988 9.04276e-05C12.929 0.000151352 12.929 0.000151352 12.9599 0.000213506C13.2554 0.00121699 13.5422 0.0102099 13.8312 0.0738996C13.8579 0.0794574 13.8579 0.0794574 13.8851 0.0851276C14.7125 0.260602 15.4141 0.641525 16.0092 1.21028C16.022 1.22215 16.0349 1.23401 16.0482 1.24624C16.5348 1.69842 16.8207 2.30284 16.9694 2.926C16.9776 2.96012 16.9776 2.96012 16.9861 2.99493C17.1426 3.75143 16.9812 4.55065 16.5478 5.19876C16.21 5.6708 15.7848 5.97794 15.2723 6.26386C15.2586 6.27149 15.245 6.27913 15.2309 6.287C15.1622 6.32541 15.0933 6.36361 15.0243 6.40148C14.6368 6.61665 14.2666 6.85701 14.139 7.28923C14.087 7.4803 14.0797 7.64636 14.0654 7.85032C13.3157 7.85032 12.5661 7.85032 11.7937 7.85032C11.7937 7.3051 11.7937 7.3051 11.8216 7.13451C11.8247 7.11443 11.8278 7.09435 11.8309 7.07366C11.9694 6.23021 12.3861 5.46774 13.1184 4.95644C13.336 4.80881 13.5641 4.68119 13.7973 4.55742C14.3635 4.26386 14.3635 4.26386 14.6878 3.75287C14.753 3.443 14.6416 3.13873 14.4635 2.88143C14.1832 2.51297 13.7905 2.28611 13.3204 2.20105C12.7604 2.12331 12.2091 2.2066 11.7469 2.52492C11.7339 2.5375 11.7209 2.55008 11.7075 2.56304C11.6766 2.59177 11.6766 2.59177 11.6298 2.59177C11.6236 2.60486 11.6174 2.61796 11.6111 2.63146C11.582 2.68263 11.5505 2.71701 11.5083 2.75888C11.2315 3.05507 11.1269 3.41288 11.0678 3.79499C10.8132 3.78021 10.5618 3.74973 10.3092 3.7177C10.2661 3.71229 10.223 3.70688 10.1799 3.70147C10.0903 3.69021 10.0007 3.6789 9.91115 3.66754C9.79611 3.65296 9.68105 3.63854 9.56598 3.62416C9.47734 3.61306 9.3887 3.60188 9.30007 3.59067C9.25761 3.58531 9.21514 3.57998 9.17267 3.57468C9.1137 3.5673 9.05474 3.55981 8.99578 3.55229C8.96936 3.54902 8.96936 3.54902 8.94241 3.54569C8.8222 3.53016 8.8222 3.53016 8.7961 3.50533C8.77812 3.09243 8.96899 2.66927 9.14739 2.3021C9.15444 2.28714 9.16149 2.27217 9.16875 2.25675C9.35375 1.86587 9.61407 1.50205 9.92022 1.188C9.93113 1.17679 9.94204 1.16559 9.95328 1.15404C10.4753 0.623435 11.1312 0.281999 11.8669 0.101752C11.8848 0.0973234 11.9026 0.0928946 11.921 0.0883317C12.2453 0.0126823 12.5668 -0.00130003 12.8988 9.04276e-05Z" fill="white"/>
<path d="M13.432 8.62826C13.4528 8.63653 13.4528 8.63653 13.4741 8.64497C13.9001 8.81732 14.15 9.07715 14.3443 9.47724C14.457 9.77531 14.478 10.1839 14.3453 10.4777C14.3366 10.4975 14.3366 10.4975 14.3277 10.5178C14.1466 10.923 13.8735 11.1608 13.453 11.3457C13.1397 11.453 12.7103 11.4729 12.4015 11.3467C12.3876 11.3412 12.3737 11.3356 12.3593 11.33C11.9334 11.1576 11.6835 10.8978 11.4892 10.4977C11.3765 10.1996 11.3555 9.79105 11.4882 9.49726C11.494 9.48402 11.4998 9.47077 11.5057 9.45712C11.6869 9.0519 11.96 8.81412 12.3805 8.62922C12.6938 8.52196 13.1232 8.50205 13.432 8.62826Z" fill="white"/>
</svg>
