<svg width="31" height="30" viewBox="0 0 31 30" fill="none" xmlns="http://www.w3.org/2000/svg">
<path fill-rule="evenodd" clip-rule="evenodd" d="M11.8008 30L12.596 20.658L5.08514 25.9908L0.922067 18.9656L9.32008 14.9922L0.919434 10.9467L5.09116 4.01346L12.596 9.34204L11.8008 0H20.0362L19.241 9.34204L26.7458 4.01346L30.9194 10.9498L22.4523 14.9922L30.9168 18.9625L26.7519 25.9908L19.241 20.658L20.0362 30H11.8008ZM18.0549 18.6031L26.4392 24.5561L29.5027 19.3864L20.151 15L29.5027 10.5353L26.4392 5.44386L18.0549 11.3969L18.9417 0.979112H12.8953L13.7821 11.3969L5.39779 5.44386L2.33429 10.5353L11.6054 15L2.33429 19.3864L5.39779 24.5561L13.7821 18.6031L12.8953 29.0209H18.9417L18.0549 18.6031Z" fill="#666666"/>
</svg>
