<svg width="28" height="29" viewBox="0 0 28 29" fill="none" xmlns="http://www.w3.org/2000/svg">
<g clip-path="url(#clip0_156_1582)">
<path d="M17 10.8115C18.1046 10.8115 19 9.91609 19 8.81152C19 7.70695 18.1046 6.81152 17 6.81152C15.8954 6.81152 15 7.70695 15 8.81152C15 9.91609 15.8954 10.8115 17 10.8115Z" stroke="white" stroke-width="1.5" stroke-linecap="round" stroke-linejoin="round"/>
<path d="M9 20.8115C9.55228 20.8115 10 20.3638 10 19.8115C10 19.2592 9.55228 18.8115 9 18.8115C8.44772 18.8115 8 19.2592 8 19.8115C8 20.3638 8.44772 20.8115 9 20.8115Z" stroke="white" stroke-width="1.5" stroke-linecap="round" stroke-linejoin="round"/>
<path d="M9 13.8115C10.1046 13.8115 11 12.9161 11 11.8115C11 10.707 10.1046 9.81152 9 9.81152C7.89543 9.81152 7 10.707 7 11.8115C7 12.9161 7.89543 13.8115 9 13.8115Z" stroke="white" stroke-width="1.5" stroke-linecap="round" stroke-linejoin="round"/>
<path d="M19.0398 25.3715C19.0175 24.9836 18.8827 24.6105 18.6518 24.298C18.4209 23.9854 18.104 23.7469 17.7398 23.6115C16.8352 23.3142 16.0663 22.704 15.5714 21.8905C15.0765 21.077 14.8881 20.1136 15.0399 19.1736C15.1918 18.2336 15.674 17.3786 16.3998 16.7623C17.1257 16.146 18.0476 15.8089 18.9998 15.8115H22.7398C23.3812 15.8133 24.0137 15.6608 24.5839 15.3669C25.154 15.0729 25.6451 14.6462 26.0157 14.1226C26.3864 13.599 26.6256 12.994 26.7133 12.3586C26.8011 11.7231 26.7347 11.0759 26.5198 10.4715C25.7243 8.22546 24.3268 6.24123 22.48 4.73562C20.6332 3.23001 18.4081 2.26093 16.0478 1.93427C13.6876 1.60761 11.2829 1.93593 9.0966 2.88336C6.91029 3.8308 5.02642 5.36089 3.65082 7.30648C2.27522 9.25207 1.4608 11.5383 1.29655 13.9154C1.1323 16.2925 1.62453 18.669 2.71947 20.7853C3.8144 22.9016 5.46992 24.6763 7.50515 25.9154C9.54038 27.1545 11.877 27.8105 14.2598 27.8115C15.4365 27.8148 16.6079 27.6532 17.7398 27.3315C18.1555 27.215 18.5155 26.953 18.7542 26.5932C18.9928 26.2334 19.0942 25.7998 19.0398 25.3715V25.3715Z" stroke="white" stroke-width="1.5" stroke-linecap="round" stroke-linejoin="round"/>
</g>
<defs>
<clipPath id="clip0_156_1582">
<rect width="28" height="28" fill="white" transform="translate(0 0.811523)"/>
</clipPath>
</defs>
</svg>
