<svg width="28" height="29" viewBox="0 0 28 29" fill="none" xmlns="http://www.w3.org/2000/svg">
<g clip-path="url(#clip0_149_215)">
<path d="M14.9396 13.8182C14.6429 13.947 14.323 14.0135 13.9996 14.0135C13.6762 14.0135 13.3562 13.947 13.0596 13.8182L1.65956 8.53823C1.47445 8.44486 1.31888 8.30194 1.21019 8.12538C1.1015 7.94883 1.04395 7.74556 1.04395 7.53823C1.04395 7.3309 1.1015 7.12764 1.21019 6.95108C1.31888 6.77452 1.47445 6.6316 1.65956 6.53823L13.0596 1.21823C13.3562 1.08942 13.6762 1.02295 13.9996 1.02295C14.323 1.02295 14.6429 1.08942 14.9396 1.21823L26.3396 6.49823C26.5247 6.5916 26.6803 6.73452 26.7889 6.91108C26.8976 7.08764 26.9552 7.2909 26.9552 7.49823C26.9552 7.70556 26.8976 7.90883 26.7889 8.08538C26.6803 8.26194 26.5247 8.40486 26.3396 8.49823L14.9396 13.8182Z" stroke="#6A52E0" stroke-width="1.5" stroke-linecap="round" stroke-linejoin="round"/>
<path d="M27 14.7183L14.8 20.3383C14.5394 20.4571 14.2564 20.5186 13.97 20.5186C13.6836 20.5186 13.4006 20.4571 13.14 20.3383L1 14.7183" stroke="#6A52E0" stroke-width="1.5" stroke-linecap="round" stroke-linejoin="round"/>
<path d="M27 21.2183L14.8 26.8383C14.5394 26.9571 14.2564 27.0186 13.97 27.0186C13.6836 27.0186 13.4006 26.9571 13.14 26.8383L1 21.2183" stroke="#6A52E0" stroke-width="1.5" stroke-linecap="round" stroke-linejoin="round"/>
</g>
<defs>
<clipPath id="clip0_149_215">
<rect width="28" height="28" fill="white" transform="translate(0 0.0182495)"/>
</clipPath>
</defs>
</svg>
