<svg width="28" height="29" viewBox="0 0 28 29" fill="none" xmlns="http://www.w3.org/2000/svg">
<g clip-path="url(#clip0_329_969)">
<path d="M17 10.0999C18.1046 10.0999 19 9.20442 19 8.09985C19 6.99528 18.1046 6.09985 17 6.09985C15.8954 6.09985 15 6.99528 15 8.09985C15 9.20442 15.8954 10.0999 17 10.0999Z" stroke="#6A52E0" stroke-width="1.5" stroke-linecap="round" stroke-linejoin="round"/>
<path d="M9 20.0999C9.55228 20.0999 10 19.6521 10 19.0999C10 18.5476 9.55228 18.0999 9 18.0999C8.44772 18.0999 8 18.5476 8 19.0999C8 19.6521 8.44772 20.0999 9 20.0999Z" stroke="#6A52E0" stroke-width="1.5" stroke-linecap="round" stroke-linejoin="round"/>
<path d="M9 13.0999C10.1046 13.0999 11 12.2044 11 11.0999C11 9.99528 10.1046 9.09985 9 9.09985C7.89543 9.09985 7 9.99528 7 11.0999C7 12.2044 7.89543 13.0999 9 13.0999Z" stroke="#6A52E0" stroke-width="1.5" stroke-linecap="round" stroke-linejoin="round"/>
<path d="M19.0398 24.6599C19.0175 24.2719 18.8827 23.8989 18.6518 23.5863C18.4209 23.2738 18.104 23.0352 17.7398 22.8999C16.8352 22.6025 16.0663 21.9923 15.5714 21.1788C15.0765 20.3653 14.8881 19.402 15.0399 18.462C15.1918 17.5219 15.674 16.6669 16.3998 16.0507C17.1257 15.4344 18.0476 15.0972 18.9998 15.0999H22.7398C23.3812 15.1016 24.0137 14.9491 24.5839 14.6552C25.154 14.3612 25.6451 13.9345 26.0157 13.4109C26.3864 12.8874 26.6256 12.2823 26.7133 11.6469C26.8011 11.0115 26.7347 10.3643 26.5198 9.75986C25.7243 7.51379 24.3268 5.52956 22.48 4.02395C20.6332 2.51834 18.4081 1.54926 16.0478 1.2226C13.6876 0.895942 11.2829 1.22426 9.0966 2.17169C6.91029 3.11913 5.02642 4.64922 3.65082 6.59481C2.27522 8.5404 1.4608 10.8266 1.29655 13.2037C1.1323 15.5808 1.62453 17.9574 2.71947 20.0736C3.8144 22.1899 5.46992 23.9646 7.50515 25.2037C9.54038 26.4429 11.877 27.0988 14.2598 27.0999C15.4365 27.1031 16.6079 26.9416 17.7398 26.6199C18.1555 26.5034 18.5155 26.2413 18.7542 25.8815C18.9928 25.5217 19.0942 25.0882 19.0398 24.6599V24.6599Z" stroke="#6A52E0" stroke-width="1.5" stroke-linecap="round" stroke-linejoin="round"/>
</g>
<defs>
<clipPath id="clip0_329_969">
<rect width="28" height="28" fill="white" transform="translate(0 0.0998535)"/>
</clipPath>
</defs>
</svg>
