<svg width="51" height="51" viewBox="0 0 51 51" fill="none" xmlns="http://www.w3.org/2000/svg">
<path d="M38.5 6.47559H12.5C11.9006 6.49205 11.3135 6.64933 10.7861 6.93473C10.2588 7.22013 9.80595 7.62563 9.46432 8.11844L2.96432 17.1184C2.48166 17.8005 2.24062 18.6242 2.27944 19.4589C2.31826 20.2935 2.63472 21.0913 3.17861 21.7256L22.6786 44.1899C23.0124 44.62 23.4402 44.9682 23.9292 45.2076C24.4182 45.4471 24.9555 45.5716 25.5 45.5716C26.0445 45.5716 26.5818 45.4471 27.0708 45.2076C27.5598 44.9682 27.9876 44.62 28.3215 44.1899L47.8215 21.7256C48.3653 21.0913 48.6818 20.2935 48.7206 19.4589C48.7594 18.6242 48.5184 17.8005 48.0357 17.1184L41.5357 8.11844C41.1941 7.62563 40.7413 7.22013 40.2139 6.93473C39.6866 6.64933 39.0995 6.49205 38.5 6.47559V6.47559Z" stroke="#6A52E0" stroke-width="2" stroke-linecap="round" stroke-linejoin="round"/>
<path d="M23.643 6.43994L14.9287 19.9399L25.5001 45.4757" stroke="#6A52E0" stroke-width="2" stroke-linecap="round" stroke-linejoin="round"/>
<path d="M27.4643 6.43994L36.1429 19.9399L25.5 45.4757" stroke="#6A52E0" stroke-width="2" stroke-linecap="round" stroke-linejoin="round"/>
<path d="M2.35742 19.9399H48.6431" stroke="#6A52E0" stroke-width="2" stroke-linecap="round" stroke-linejoin="round"/>
</svg>
