<svg width="26" height="26" viewBox="0 0 26 26" fill="none" xmlns="http://www.w3.org/2000/svg">
<g clip-path="url(#clip0_394_216)">
<path d="M23.0679 13.1325L20.2392 8.76434C20.02 8.42578 19.6483 8.22362 19.2449 8.22362H6.76454C6.3618 8.22362 5.99043 8.42527 5.77111 8.76297L2.93366 13.1317C2.6437 13.578 2.68849 14.1674 3.04258 14.5648L12.1153 24.7505C12.3398 25.0026 12.6622 25.1472 12.9998 25.1472C12.9997 25.1472 12.9998 25.1472 12.9998 25.1472C13.3373 25.1472 13.6598 25.0027 13.8844 24.7506L22.9581 14.5643C23.3117 14.1673 23.3568 13.5786 23.0679 13.1325ZM18.6719 9.23919L16.293 12.9178L13.9127 9.23919H18.6719ZM15.3597 13.345H10.6399L12.9998 9.6979L15.3597 13.345ZM12.0869 9.23929L9.71311 12.9078L7.34015 9.23929H12.0869ZM6.40115 9.65748L8.78635 13.345H4.00616L6.40115 9.65748ZM4.22066 14.3606H9.33154L12.0339 23.1323L4.22066 14.3606ZM12.9998 22.8178L10.3942 14.3606H15.6053L12.9998 22.8178ZM13.9656 23.1326L16.6681 14.3606H21.7794L13.9656 23.1326ZM17.2263 13.345L19.6093 9.66002L21.9955 13.345H17.2263Z" fill="#6A52E0"/>
<path d="M1.54035 13.345H0.507812C0.227398 13.345 0 13.5723 0 13.8528C0 14.1332 0.227398 14.3606 0.507812 14.3606H1.54035C1.82076 14.3606 2.04816 14.1332 2.04816 13.8528C2.04816 13.5723 1.82076 13.345 1.54035 13.345Z" fill="#6A52E0"/>
<path d="M25.4925 13.345H24.46C24.1795 13.345 23.9521 13.5723 23.9521 13.8528C23.9521 14.1332 24.1795 14.3606 24.46 14.3606H25.4925C25.7729 14.3606 26.0003 14.1332 26.0003 13.8528C26.0003 13.5723 25.7729 13.345 25.4925 13.345Z" fill="#6A52E0"/>
<path d="M22.1992 4.66304C22.0009 4.46474 21.6794 4.46474 21.481 4.66304L19.7942 6.34984C19.5959 6.54814 19.5959 6.86969 19.7942 7.06799C19.8935 7.16716 20.0234 7.21673 20.1534 7.21673C20.2834 7.21673 20.4133 7.16711 20.5124 7.06799L22.1992 5.38119C22.3975 5.18289 22.3975 4.86139 22.1992 4.66304Z" fill="#6A52E0"/>
<path d="M6.22848 6.3408L4.54173 4.65394C4.34348 4.45564 4.02203 4.45564 3.82353 4.65394C3.62523 4.85224 3.62523 5.17379 3.82353 5.37209L5.51033 7.05889C5.60951 7.15807 5.73946 7.20763 5.86941 7.20763C5.99935 7.20763 6.1293 7.15802 6.22848 7.05889C6.42678 6.86064 6.42678 6.53905 6.22848 6.3408Z" fill="#6A52E0"/>
<path d="M13.0127 0.852768C12.7323 0.852768 12.5049 1.08012 12.5049 1.36058V4.66989C12.5049 4.95036 12.7322 5.17771 13.0127 5.17771C13.2931 5.17771 13.5205 4.95036 13.5205 4.66989V1.36058C13.5205 1.08017 13.2931 0.852768 13.0127 0.852768Z" fill="#6A52E0"/>
<path d="M13.3717 6.02875C13.2773 5.9343 13.1463 5.87996 13.0127 5.87996C12.8791 5.87996 12.7481 5.9343 12.6537 6.02875C12.5592 6.1232 12.5049 6.25422 12.5049 6.38777C12.5049 6.52183 12.5592 6.65234 12.6537 6.7468C12.7481 6.84176 12.8791 6.89558 13.0127 6.89558C13.1463 6.89558 13.2773 6.84176 13.3717 6.7468C13.4666 6.65234 13.5205 6.52133 13.5205 6.38777C13.5205 6.25422 13.4666 6.12325 13.3717 6.02875Z" fill="#6A52E0"/>
</g>
<defs>
<clipPath id="clip0_394_216">
<rect width="26" height="26" fill="white"/>
</clipPath>
</defs>
</svg>
