<svg width="28" height="28" viewBox="0 0 28 28" fill="none" xmlns="http://www.w3.org/2000/svg">
<path d="M21.2799 3.08002H6.71994C6.38427 3.08923 6.05547 3.17732 5.76015 3.33714C5.46482 3.49696 5.21125 3.72404 5.01994 4.00002L1.37994 9.04002C1.10965 9.42197 0.97467 9.88324 0.99641 10.3506C1.01815 10.8181 1.19537 11.2648 1.49994 11.62L12.4199 24.2C12.6069 24.4409 12.8464 24.6359 13.1203 24.77C13.3941 24.9041 13.695 24.9738 13.9999 24.9738C14.3049 24.9738 14.6057 24.9041 14.8796 24.77C15.1534 24.6359 15.393 24.4409 15.5799 24.2L26.4999 11.62C26.8045 11.2648 26.9817 10.8181 27.0035 10.3506C27.0252 9.88324 26.8902 9.42197 26.6199 9.04002L22.9799 4.00002C22.7886 3.72404 22.5351 3.49696 22.2397 3.33714C21.9444 3.17732 21.6156 3.08923 21.2799 3.08002V3.08002Z" stroke="#6A52E0" stroke-width="1.5" stroke-linecap="round" stroke-linejoin="round"/>
<path d="M12.9601 3.06L8.08008 10.62L14.0001 24.92" stroke="#6A52E0" stroke-width="1.5" stroke-linecap="round" stroke-linejoin="round"/>
<path d="M15.1 3.06L19.96 10.62L14 24.92" stroke="#6A52E0" stroke-width="1.5" stroke-linecap="round" stroke-linejoin="round"/>
<path d="M1.04004 10.62H26.96" stroke="#6A52E0" stroke-width="1.5" stroke-linecap="round" stroke-linejoin="round"/>
</svg>
