<svg width="28" height="29" viewBox="0 0 28 29" fill="none" xmlns="http://www.w3.org/2000/svg">
<g clip-path="url(#clip0_156_1548)">
<path d="M6.5 12.8115C9.53757 12.8115 12 10.3491 12 7.31152C12 4.27396 9.53757 1.81152 6.5 1.81152C3.46243 1.81152 1 4.27396 1 7.31152C1 10.3491 3.46243 12.8115 6.5 12.8115Z" stroke="white" stroke-width="1.5" stroke-linecap="round" stroke-linejoin="round"/>
<path d="M21.5 12.8115C24.5376 12.8115 27 10.3491 27 7.31152C27 4.27396 24.5376 1.81152 21.5 1.81152C18.4624 1.81152 16 4.27396 16 7.31152C16 10.3491 18.4624 12.8115 21.5 12.8115Z" stroke="white" stroke-width="1.5" stroke-linecap="round" stroke-linejoin="round"/>
<path d="M6.5 27.8115C9.53757 27.8115 12 25.3491 12 22.3115C12 19.274 9.53757 16.8115 6.5 16.8115C3.46243 16.8115 1 19.274 1 22.3115C1 25.3491 3.46243 27.8115 6.5 27.8115Z" stroke="white" stroke-width="1.5" stroke-linecap="round" stroke-linejoin="round"/>
<path d="M21.5 27.8115C24.5376 27.8115 27 25.3491 27 22.3115C27 19.274 24.5376 16.8115 21.5 16.8115C18.4624 16.8115 16 19.274 16 22.3115C16 25.3491 18.4624 27.8115 21.5 27.8115Z" stroke="white" stroke-width="1.5" stroke-linecap="round" stroke-linejoin="round"/>
</g>
<defs>
<clipPath id="clip0_156_1548">
<rect width="28" height="28" fill="white" transform="translate(0 0.811523)"/>
</clipPath>
</defs>
</svg>
