<svg width="28" height="29" viewBox="0 0 28 29" fill="none" xmlns="http://www.w3.org/2000/svg">
<g clip-path="url(#clip0_376_8158)">
<path d="M6.5 12.9248C9.53757 12.9248 12 10.4624 12 7.4248C12 4.38724 9.53757 1.9248 6.5 1.9248C3.46243 1.9248 1 4.38724 1 7.4248C1 10.4624 3.46243 12.9248 6.5 12.9248Z" stroke="#6A52E0" stroke-width="1.5" stroke-linecap="round" stroke-linejoin="round"/>
<path d="M21.5 12.9248C24.5376 12.9248 27 10.4624 27 7.4248C27 4.38724 24.5376 1.9248 21.5 1.9248C18.4624 1.9248 16 4.38724 16 7.4248C16 10.4624 18.4624 12.9248 21.5 12.9248Z" stroke="#6A52E0" stroke-width="1.5" stroke-linecap="round" stroke-linejoin="round"/>
<path d="M6.5 27.9248C9.53757 27.9248 12 25.4624 12 22.4248C12 19.3872 9.53757 16.9248 6.5 16.9248C3.46243 16.9248 1 19.3872 1 22.4248C1 25.4624 3.46243 27.9248 6.5 27.9248Z" stroke="#6A52E0" stroke-width="1.5" stroke-linecap="round" stroke-linejoin="round"/>
<path d="M21.5 27.9248C24.5376 27.9248 27 25.4624 27 22.4248C27 19.3872 24.5376 16.9248 21.5 16.9248C18.4624 16.9248 16 19.3872 16 22.4248C16 25.4624 18.4624 27.9248 21.5 27.9248Z" stroke="#6A52E0" stroke-width="1.5" stroke-linecap="round" stroke-linejoin="round"/>
</g>
<defs>
<clipPath id="clip0_376_8158">
<rect width="28" height="28" fill="white" transform="translate(0 0.924805)"/>
</clipPath>
</defs>
</svg>
