<svg width="28" height="29" viewBox="0 0 28 29" fill="none" xmlns="http://www.w3.org/2000/svg">
<g clip-path="url(#clip0_149_202)">
<path d="M6.5 12.3054C9.53757 12.3054 12 9.84302 12 6.80545C12 3.76788 9.53757 1.30545 6.5 1.30545C3.46243 1.30545 1 3.76788 1 6.80545C1 9.84302 3.46243 12.3054 6.5 12.3054Z" stroke="#6A52E0" stroke-width="1.5" stroke-linecap="round" stroke-linejoin="round"/>
<path d="M21.5 12.3054C24.5376 12.3054 27 9.84302 27 6.80545C27 3.76788 24.5376 1.30545 21.5 1.30545C18.4624 1.30545 16 3.76788 16 6.80545C16 9.84302 18.4624 12.3054 21.5 12.3054Z" stroke="#6A52E0" stroke-width="1.5" stroke-linecap="round" stroke-linejoin="round"/>
<path d="M6.5 27.3054C9.53757 27.3054 12 24.843 12 21.8054C12 18.7679 9.53757 16.3055 6.5 16.3055C3.46243 16.3055 1 18.7679 1 21.8054C1 24.843 3.46243 27.3054 6.5 27.3054Z" stroke="#6A52E0" stroke-width="1.5" stroke-linecap="round" stroke-linejoin="round"/>
<path d="M21.5 27.3054C24.5376 27.3054 27 24.843 27 21.8054C27 18.7679 24.5376 16.3055 21.5 16.3055C18.4624 16.3055 16 18.7679 16 21.8054C16 24.843 18.4624 27.3054 21.5 27.3054Z" stroke="#6A52E0" stroke-width="1.5" stroke-linecap="round" stroke-linejoin="round"/>
</g>
<defs>
<clipPath id="clip0_149_202">
<rect width="28" height="28" fill="white" transform="translate(0 0.30545)"/>
</clipPath>
</defs>
</svg>
