<svg width="28" height="28" viewBox="0 0 28 28" fill="none" xmlns="http://www.w3.org/2000/svg">
<g clip-path="url(#clip0_394_136)">
<path d="M26.2737 9.41606C25.7151 9.10909 24.8642 9.17084 24.3161 10.0324C24.3145 10.035 24.3129 10.0376 24.3112 10.0403L22.2737 13.3749C22.0283 13.2334 21.7468 13.1707 21.4605 13.1963C21.1015 13.2285 20.7786 13.3969 20.5512 13.6706C20.4057 13.8457 19.9252 14.4459 19.4166 15.0814C18.9334 15.6848 18.4339 16.3089 18.2944 16.4768C17.8109 17.0588 17.1941 17.5063 16.5411 17.9801C15.6147 18.6524 14.6015 19.3876 14.0002 20.5868C13.399 19.3876 12.3859 18.6524 11.4594 17.9801C10.8064 17.5063 10.1896 17.0587 9.70603 16.4768C9.56669 16.309 9.06756 15.6855 8.58483 15.0824C8.07575 14.4465 7.5949 13.8458 7.44937 13.6706C7.22192 13.3969 6.89895 13.2285 6.54003 13.1963C6.25352 13.1707 5.97224 13.2335 5.72682 13.3749L3.68928 10.0403C3.6877 10.0376 3.68608 10.035 3.6844 10.0324C3.13637 9.17094 2.28543 9.10894 1.72679 9.41606C1.06501 9.77991 0.818007 10.5918 1.15235 11.3047C1.15311 11.3063 1.15387 11.3079 1.15464 11.3095C1.29738 11.6057 1.64462 12.4342 2.04676 13.3937C2.60957 14.7365 3.30994 16.4076 3.90347 17.7131C4.67666 19.414 5.02345 19.8919 6.37722 21.1224L8.20357 22.7825V22.9375H7.90655C7.62608 22.9375 7.39874 23.1649 7.39874 23.4453V26.4922C7.39874 26.7727 7.62608 27 7.90655 27H20.094C20.3744 27 20.6018 26.7727 20.6018 26.4922V23.4453C20.6018 23.1649 20.3744 22.9375 20.094 22.9375H19.797V22.7825L21.6234 21.1224C22.9771 19.8919 23.3239 19.414 24.0972 17.7131C24.6906 16.4077 25.391 14.7366 25.9538 13.3939C26.356 12.4343 26.7033 11.6057 26.846 11.3095C26.8468 11.3079 26.8475 11.3063 26.8483 11.3047C27.1827 10.5918 26.9357 9.77991 26.2737 9.41606ZM9.05298 22.182L7.06038 20.3708C5.8132 19.2372 5.54197 18.8632 4.82809 17.2928C4.24081 16.0011 3.54369 14.3377 2.98347 13.0011C2.56026 11.9913 2.22571 11.1931 2.07088 10.8713C1.929 10.5663 2.0952 10.3726 2.21611 10.3062C2.41883 10.1947 2.64638 10.2949 2.82539 10.5742L5.09023 14.2808C5.04864 14.5527 5.08281 14.8903 5.24785 15.3075C5.72179 16.5053 6.30933 17.7017 6.8598 18.5899C7.00752 18.8283 7.32048 18.9018 7.55895 18.7541C7.79732 18.6063 7.87085 18.2933 7.72313 18.0549C7.20303 17.2156 6.64504 16.078 6.19228 14.9338C5.99875 14.4447 6.12728 14.3367 6.17567 14.296C6.25377 14.2304 6.35092 14.1993 6.44964 14.208C6.53729 14.2158 6.61498 14.2556 6.66835 14.3198C6.808 14.4878 7.3083 15.1128 7.79209 15.7172C8.3 16.3518 8.77973 16.9511 8.92502 17.1259C9.49006 17.806 10.188 18.3125 10.863 18.8022C12.1713 19.7515 13.3017 20.5719 13.4926 22.477V22.9376H9.21924V22.5579C9.21924 22.4147 9.15886 22.2783 9.05298 22.182ZM8.41441 23.9531H13.4925V25.9844H8.41441V23.9531ZM19.5862 25.9844H14.5082V23.9531H19.5862V25.9844ZM25.9297 10.8713C25.775 11.1931 25.4404 11.9914 25.0171 13.0013C24.4569 14.3378 23.7598 16.0011 23.1726 17.2928C22.4586 18.8632 22.1874 19.2372 20.9402 20.3708L18.9476 22.182C18.8418 22.2783 18.7814 22.4147 18.7814 22.5578V22.9375H14.5082V22.4767C14.6991 20.5717 15.8296 19.7513 17.1377 18.8021C17.8127 18.3124 18.5107 17.8059 19.0757 17.1259C19.2211 16.9509 19.7012 16.3511 20.2096 15.716C20.693 15.1121 21.1928 14.4876 21.3324 14.3197C21.3857 14.2555 21.4634 14.2157 21.5511 14.2079C21.6496 14.199 21.747 14.2303 21.8251 14.296C21.8734 14.3367 22.002 14.4447 21.8085 14.9337C21.3557 16.078 20.7978 17.2156 20.2777 18.0549C20.1299 18.2933 20.2034 18.6063 20.4418 18.7541C20.6802 18.9017 20.9932 18.8282 21.1409 18.5899C21.6913 17.7017 22.2788 16.5053 22.7529 15.3074C22.9179 14.8903 22.952 14.5526 22.9104 14.2808L25.1754 10.574C25.3544 10.2949 25.5819 10.1947 25.7846 10.3062C25.9055 10.3725 26.0717 10.5663 25.9297 10.8713Z" fill="#6A52E0"/>
<path d="M14.0007 10.3796C14.9725 10.3796 15.7632 9.58897 15.7632 8.61717C15.7632 7.64538 14.9725 6.85471 14.0007 6.85471C13.0288 6.85471 12.2383 7.64533 12.2383 8.61717C12.2383 9.58902 13.0288 10.3796 14.0007 10.3796ZM14.0007 7.87034C14.4125 7.87034 14.7475 8.20534 14.7475 8.61717C14.7475 9.02896 14.4125 9.36396 14.0007 9.36396C13.5889 9.36396 13.2539 9.02896 13.2539 8.61717C13.2539 8.20534 13.5889 7.87034 14.0007 7.87034Z" fill="#6A52E0"/>
<path d="M6.89062 9.12498H7.23802C7.48608 12.46 10.1571 15.131 13.4921 15.3791V15.7265C13.4921 16.007 13.7195 16.2343 13.9999 16.2343C14.2804 16.2343 14.5077 16.007 14.5077 15.7265V15.3791C17.8427 15.131 20.5138 12.46 20.7619 9.12498H21.1093C21.3897 9.12498 21.6171 8.89764 21.6171 8.61717C21.6171 8.33671 21.3897 8.10936 21.1093 8.10936H20.7619C20.5138 4.77436 17.8427 2.10332 14.5077 1.85526V1.50781C14.5077 1.22735 14.2803 1 13.9999 1C13.7195 1 13.4921 1.22735 13.4921 1.50781V1.85521C10.1571 2.10332 7.48613 4.77431 7.23802 8.10936H6.89062C6.61016 8.10936 6.38281 8.33671 6.38281 8.61717C6.38281 8.89764 6.61016 9.12498 6.89062 9.12498ZM8.25699 9.12498H9.75839C9.99046 11.0753 11.5418 12.6267 13.4922 12.8587V14.3601C10.7175 14.1168 8.50029 11.8996 8.25699 9.12498ZM14 5.36114C15.7954 5.36114 17.256 6.82175 17.256 8.61712C17.256 10.4124 15.7954 11.8731 14 11.8731C12.2046 11.8731 10.7439 10.4125 10.7439 8.61717C10.7439 6.82181 12.2046 5.36114 14 5.36114ZM14.5078 14.3601V12.8587C16.4581 12.6266 18.0095 11.0753 18.2415 9.12498H19.743C19.4997 11.8996 17.2824 14.1168 14.5078 14.3601ZM19.743 8.10936H18.2415C18.0095 6.15901 16.4581 4.60765 14.5078 4.37558V2.87418C17.2824 3.11747 19.4997 5.33468 19.743 8.10936ZM13.4922 2.87418V4.37558C11.5418 4.60765 9.99046 6.15901 9.75839 8.10936H8.25699C8.50029 5.33468 10.7175 3.11747 13.4922 2.87418Z" fill="#6A52E0"/>
</g>
<defs>
<clipPath id="clip0_394_136">
<rect width="26" height="26" fill="white" transform="translate(1 1)"/>
</clipPath>
</defs>
</svg>
