<svg width="60" height="61" viewBox="0 0 60 61" fill="none" xmlns="http://www.w3.org/2000/svg">
<g clip-path="url(#clip0_731_106)">
<path d="M59.9467 32.065C59.9088 32.0337 59.8538 32.0238 59.8109 32.0382C59.7586 32.0543 59.7106 32.0683 59.6653 32.0815L59.6432 32.088C59.5316 32.1206 59.4352 32.1486 59.3397 32.187C57.831 32.7864 56.6433 33.8134 55.7084 35.3265C55.4776 35.7004 55.2988 36.089 55.1563 36.4765C55.3899 35.173 55.444 34.6651 55.4854 33.2065C55.4874 33.1453 55.4874 33.083 55.4874 33.0212C55.4874 32.8524 55.4874 32.693 55.5242 32.5476C55.5684 32.3753 55.6573 32.2034 55.7433 32.037C55.7675 31.99 55.7917 31.9429 55.8117 31.9015C55.8187 31.8934 55.8411 31.8797 55.8498 31.8784C56.2813 31.8125 56.6628 31.6293 57.0165 31.3185C57.3729 31.0037 57.6661 30.6184 57.8879 30.1729C58.684 28.5764 59.0824 26.8117 59.0723 24.9286C59.0714 24.7469 59.0501 24.57 59.0266 24.3777C59.016 24.2915 59.0051 24.2034 58.9961 24.1121C58.991 24.062 58.9602 24.0175 58.9155 23.9958C58.8714 23.9745 58.8182 23.976 58.7737 24.0029C58.7468 24.0197 58.7237 24.0334 58.7028 24.0456C58.6624 24.0697 58.6316 24.0885 58.6024 24.1095C57.9232 24.5963 57.3242 25.2024 56.8218 25.9104C56.0018 27.0677 55.525 28.3762 55.3965 29.8158C55.3837 29.6553 55.3708 29.4948 55.3579 29.3344L55.3534 29.2762C55.303 28.6471 55.2509 27.9965 55.2085 27.3567C55.1979 27.1948 55.1667 27.0372 55.1367 26.8847C55.0786 26.5916 55.0237 26.3147 55.1115 26.0246C55.1315 25.959 55.1484 25.893 55.1652 25.8271C55.2067 25.664 55.4072 25.4127 55.715 25.1379L55.7266 25.1275C55.8402 25.0313 56.4234 24.4977 56.7542 23.4422C57.0901 22.37 57.0646 21.2496 57.0461 20.4314L57.0457 20.4096C57.021 19.285 56.8995 18.4376 56.6517 17.6614C56.6196 17.5622 56.5816 17.4643 56.5413 17.3614C56.5204 17.3078 56.499 17.2525 56.4771 17.1946C56.459 17.1456 56.4157 17.1099 56.365 17.1015L56.3402 17.0993C56.2963 17.0993 56.2552 17.119 56.2274 17.1529L55.9867 17.4464C54.8323 18.8543 54.2651 20.5056 54.3006 22.3545C54.3068 22.6801 54.3312 23.0141 54.3743 23.3589C54.0809 22.3464 53.7368 21.3607 53.3455 20.4125C53.3374 20.3917 53.3321 20.366 53.3315 20.3442L53.3288 20.2146C53.3247 20.0275 53.3205 19.8339 53.3285 19.6436C53.3297 19.612 53.3502 19.5553 53.3927 19.4995C53.4532 19.4196 53.5203 19.3416 53.5897 19.2604C53.7081 19.1226 53.8304 18.9803 53.9272 18.8179C54.2391 18.2955 54.3856 17.6783 54.388 16.8753C54.3922 15.9301 54.2465 14.9354 53.9289 13.7448C53.7553 13.0953 53.4933 12.2514 53.0055 11.4864C52.9724 11.435 52.9354 11.3865 52.896 11.3353C52.8782 11.3126 52.8596 11.2883 52.8406 11.2623C52.813 11.2252 52.7748 11.2035 52.7131 11.2035C52.6639 11.2071 52.62 11.2351 52.5955 11.2786C51.9831 12.3838 51.6781 13.5645 51.6637 14.8882C51.6514 15.9919 51.8237 16.9416 52.0398 17.6922C51.4898 16.6875 50.8787 15.7167 50.2162 14.7959L50.201 14.775C50.186 14.755 50.1796 14.7452 50.1807 14.7521C50.139 14.4542 50.1102 14.2158 50.0902 14.0083C50.0906 14.0051 50.0945 13.9877 50.1255 13.936C50.1693 13.8614 50.2172 13.7883 50.2682 13.711C50.3705 13.5555 50.4761 13.3946 50.5437 13.2144C50.748 12.6706 50.7938 12.0538 50.6836 11.3295C50.4416 9.72654 49.7349 8.2831 48.5237 6.91651C48.399 6.77619 48.2613 6.65212 48.1155 6.52098L48.0752 6.48444C48.0182 6.43285 47.9597 6.38007 47.9006 6.32427C47.863 6.28848 47.8092 6.27509 47.757 6.29043C47.7077 6.30607 47.6696 6.34698 47.6579 6.39781L47.6314 6.51391C47.6134 6.59091 47.5994 6.65167 47.589 6.71273C47.426 7.68575 47.4379 8.72795 47.6256 9.89919C47.8118 11.0608 48.1828 12.0627 48.752 12.933C47.8984 11.9272 47.0681 11.0826 46.2003 10.3341C46.1964 10.329 46.1907 10.3135 46.1903 10.3096C46.2581 9.72534 46.114 9.17491 45.7495 8.62689C45.2708 7.90667 44.6056 7.35775 43.7724 6.99561C43.2739 6.77935 42.7573 6.5879 42.2515 6.40037C42.0093 6.31044 41.767 6.2208 41.5175 6.1247C41.2668 6.025 41.1596 6.00725 41.1014 6.06109C41.0265 6.13087 41.0445 6.19042 41.0772 6.29871L41.0877 6.33405C41.3934 7.36392 41.7992 8.17843 42.3284 8.82405C43.2999 10.0105 44.4361 10.6132 45.8001 10.6665C45.848 10.6693 45.8859 10.6826 45.9014 10.6946C46.0934 10.8384 46.2348 10.9534 46.3597 11.0674C46.755 11.4287 47.1442 11.8135 47.525 12.2188C46.9586 11.8669 46.2664 11.7081 45.4867 11.7475C45.0601 11.769 44.6366 11.8315 44.2271 11.892L44.2114 11.8944C44.0904 11.9122 43.9699 11.9298 43.8497 11.9467C43.5866 11.9824 43.3213 12.029 43.087 12.0699C42.9921 12.0869 42.7654 12.1385 42.7132 12.2484C42.6952 12.286 42.6967 12.3272 42.7172 12.3647C42.7352 12.3973 42.7551 12.428 42.7767 12.456C43.453 13.3335 44.2245 13.9114 45.1353 14.2226C46.2457 14.604 47.2657 14.5726 48.1822 14.1239C48.3223 14.0468 48.4914 14.0077 48.6845 14.0077C48.8302 14.0077 48.9395 14.0307 48.9758 14.039C49.0301 14.048 49.1038 14.0784 49.1188 14.0979C49.6888 14.8473 50.2297 15.6477 50.7349 16.4885C50.3081 16.0734 49.7515 15.7936 48.9932 15.6113C48.3286 15.4529 47.6492 15.4189 46.9923 15.3859L46.7723 15.3747C46.5662 15.3642 46.3602 15.3511 46.148 15.3377L45.7922 15.3158C45.7462 15.3158 45.7024 15.338 45.6756 15.375C45.646 15.4149 45.6389 15.4666 45.6564 15.5131C45.6707 15.5519 45.6967 15.6203 45.7101 15.6432C46.4029 16.8021 47.2165 17.6037 48.1971 18.0939C49.1556 18.5728 50.0217 18.6994 50.8954 18.4905C50.9964 18.4661 51.1136 18.4532 51.2346 18.4532C51.6062 18.4532 51.8654 18.5666 51.9198 18.6716C52.4005 19.6631 52.8294 20.6934 53.1993 21.7443C52.8113 21.2094 52.2687 20.7749 51.5817 20.4499C50.8993 20.1278 50.1887 19.8333 49.4895 19.5435C49.189 19.4193 48.8873 19.2946 48.587 19.1671C48.5424 19.1476 48.4896 19.1516 48.4479 19.1791C48.407 19.2064 48.3826 19.2518 48.3826 19.3007C48.3826 19.3945 49.3797 22.1618 50.8278 23.2523C51.4186 23.6972 52.1461 24.1548 53.0637 24.1763C53.3383 24.1819 53.6222 24.2207 53.8367 24.4644C53.8695 24.5032 53.9129 24.5335 53.9603 24.5496C54.0335 24.5736 54.0537 24.6184 54.0898 24.7712C54.387 26.0189 54.6034 27.3049 54.7366 28.6107C54.6963 28.4782 54.6495 28.3444 54.5958 28.2089C54.2718 27.387 53.7263 26.6678 52.8793 25.9455C52.4427 25.5716 51.9855 25.2096 51.5434 24.8594L51.5223 24.8428C51.321 24.6833 51.12 24.5243 50.9197 24.3634C50.8784 24.3302 50.8381 24.2959 50.7913 24.2559L50.6663 24.1488C50.6225 24.1118 50.5574 24.1041 50.5063 24.1297C50.4538 24.1563 50.4224 24.2113 50.4264 24.2701C50.4326 24.3584 50.4376 24.4419 50.4422 24.522L50.4446 24.5595C50.4546 24.7245 50.4639 24.8801 50.4806 25.0338C50.6373 26.5304 51.0823 27.7798 51.841 28.8534C52.3107 29.5171 52.9844 30.3283 54.035 30.7119C54.2907 30.8058 54.4761 30.9479 54.6748 31.203C54.8622 31.4418 54.8971 31.66 54.8929 31.9346C54.875 33.0849 54.793 34.2261 54.6485 35.3437C54.6146 35.0326 54.5431 34.7125 54.4331 34.3798C54.2056 33.691 53.851 33.0213 53.3488 32.3325C52.9154 31.7361 52.4644 31.1375 52.0282 30.5584L51.9992 30.5197C51.8263 30.2904 51.6535 30.0608 51.4852 29.8361C51.4536 29.7899 51.408 29.7734 51.3817 29.7642C51.3444 29.746 51.2999 29.7442 51.2603 29.761C51.2215 29.7776 51.1918 29.8102 51.1787 29.8502L51.1736 29.8659C51.1664 29.8869 51.1606 29.9056 51.1576 29.9242C50.8569 31.7178 51.0414 33.3247 51.7216 34.8373C52.0538 35.5769 52.4994 36.4143 53.285 37.0167C53.6437 37.2918 53.9269 37.6777 54.0824 38.1032C54.1154 38.1947 54.1141 38.2344 54.1104 38.2498C53.7779 39.6271 53.3435 40.9554 52.8155 42.2127C52.9515 41.5501 52.9422 40.8541 52.787 40.133C52.5666 39.1109 52.188 38.1205 51.8502 37.2723L51.749 37.0182C51.5906 36.6208 51.4312 36.2201 51.2665 35.8049C51.2456 35.7518 51.1952 35.7156 51.128 35.7123C51.0751 35.7123 51.0263 35.7425 51.0011 35.7915L50.948 35.8914C50.9247 35.9351 50.9029 35.9759 50.8842 36.018C50.2048 37.5511 49.9753 39.1227 50.2025 40.6891C50.3649 41.8092 50.6401 42.6112 51.0949 43.2898C51.3303 43.6405 51.5539 44.0312 51.5945 44.5117C51.6041 44.6254 51.5996 44.7038 51.5489 44.793C50.9754 45.7974 50.3323 46.7453 49.628 47.626C49.6307 47.6212 49.6333 47.6164 49.636 47.6116C50.1427 46.6856 50.158 45.6845 50.1063 44.8271C50.0616 44.0921 49.9774 43.3582 49.8963 42.6487L49.8917 42.6076C49.859 42.3234 49.8265 42.0393 49.7969 41.7546C49.7798 41.5933 49.7607 41.4319 49.741 41.2681L49.7149 41.0464C49.7092 40.9974 49.6793 40.955 49.6363 40.9336C49.5563 40.8918 49.4268 40.9564 49.2869 41.1218C48.3258 42.2586 47.7293 43.5432 47.514 44.9402C47.2907 46.3886 47.4117 47.6281 47.8845 48.7296C47.8972 48.7589 47.8969 48.8187 47.8967 48.8387L47.8713 49.4725C47.8676 49.5181 47.8435 49.5695 47.8236 49.5886C46.8639 50.5129 45.8072 51.3164 44.6733 51.9852C45.21 51.5 45.5959 50.867 45.846 50.0649C46.1232 49.1758 46.2654 48.2504 46.4034 47.3532L46.4154 47.2733C46.4643 46.9581 46.5152 46.6435 46.5673 46.322L46.6261 45.9585C46.6345 45.9055 46.6136 45.8526 46.5725 45.8209C46.5318 45.7884 46.4728 45.7806 46.4259 45.8007L46.3746 45.8219C46.3199 45.8443 46.2722 45.8643 46.2273 45.8873C44.0836 46.958 42.6725 49.455 42.8719 51.8246C42.9032 52.1957 42.8692 52.5443 42.7678 52.8896C42.7584 52.9211 42.728 52.9552 42.7156 52.9609C41.6975 53.3903 40.7294 53.7036 39.7554 53.9186C39.7053 53.9302 39.6656 53.966 39.6493 54.0143C39.633 54.0628 39.6429 54.1156 39.6763 54.1553C39.7821 54.2807 39.8743 54.4157 39.9501 54.5569C39.9813 54.6146 40.0554 54.6442 40.1109 54.6298C40.9045 54.4487 41.6774 54.2143 42.4087 53.9324C42.4678 53.9087 42.5129 53.8974 42.5552 53.9043C42.7179 53.926 42.8898 53.9594 43.0806 54.0067C43.12 54.0164 43.1527 54.0346 43.1533 54.0329C43.5702 54.864 44.2866 55.3933 45.3443 55.651C45.5744 55.7061 45.8117 55.7469 46.0496 55.7719C46.2987 55.7982 46.5765 55.8116 46.875 55.8116C47.2885 55.8116 47.5835 55.786 47.5871 55.7857C48.5039 55.6831 49.2868 55.4768 49.9802 55.1548C50.2648 55.0229 50.589 54.8453 50.8382 54.5281C50.8859 54.4674 50.8779 54.3797 50.82 54.3287C50.1156 53.7072 49.3984 53.2555 48.627 52.9481C47.4842 52.494 46.4432 52.3709 45.4228 52.5672C45.2703 52.5968 45.1214 52.6341 44.9768 52.677C45.9313 52.1064 46.8452 51.4358 47.7083 50.6718C47.7248 50.6568 47.7521 50.6436 47.7733 50.6398C47.9145 50.6163 48.102 50.5875 48.2939 50.5736C48.3117 50.5736 48.3342 50.5822 48.3368 50.5831C48.8568 51.1651 49.5268 51.448 50.3851 51.448C50.4288 51.448 50.4728 51.4471 50.5165 51.4456C51.4497 51.4155 52.3878 51.1591 53.3054 50.6831C53.9722 50.3353 54.6673 49.9303 55.2309 49.3263C55.3559 49.192 55.4675 49.0401 55.566 48.9061L55.5756 48.893C55.6192 48.8339 55.6633 48.7744 55.7086 48.7156C55.7332 48.6838 55.7436 48.6429 55.7372 48.6017C55.7302 48.562 55.7072 48.5267 55.668 48.5011C55.6581 48.4957 55.4194 48.3677 55.2015 48.2834C53.7424 47.7195 52.2693 47.6618 50.8641 48.1146C50.404 48.2624 49.9711 48.4844 49.5495 48.7912C50.3291 47.885 51.051 46.8915 51.7064 45.8225C51.7135 45.8112 51.7321 45.7807 51.7381 45.7751C51.7954 45.7386 51.8541 45.704 51.9126 45.6699C52.0174 45.6084 52.126 45.5448 52.228 45.469C52.314 45.4047 52.3382 45.4031 52.4251 45.459C52.5481 45.5389 52.6912 45.5804 52.8158 45.613C53.5452 45.7998 54.2805 45.7067 55.0938 45.3249C55.8367 44.9766 56.4079 44.426 56.9147 43.8831C57.6519 43.0911 58.1336 42.3766 58.4308 41.6343C58.4932 41.4785 58.5377 41.3174 58.584 41.149C58.6031 41.0783 58.6227 41.0076 58.6434 40.9382C58.6661 40.8636 58.6264 40.7846 58.5528 40.7586L58.4917 40.7539C58.1911 40.7539 55.5093 40.798 53.9407 42.3199C53.5995 42.6511 53.2936 43.003 53.0143 43.3883C53.6349 42.0742 54.1611 40.6893 54.5852 39.2517L54.5913 39.2306C54.5964 39.213 54.6041 39.1864 54.6092 39.1792L55.0195 38.6158C55.0348 38.5933 55.0366 38.5933 55.0607 38.5933C55.0714 38.5933 55.0831 38.594 55.0965 38.5948L55.1842 38.6C55.4895 38.619 55.6692 38.6163 55.817 38.5931C56.4011 38.5009 56.9284 38.2068 57.4287 37.6936C58.5989 36.4935 59.4044 34.9963 59.8911 33.1167C59.9433 32.9153 59.9578 32.712 59.9735 32.4963C59.9804 32.3986 59.9881 32.2978 59.9992 32.1937C60.0039 32.1438 59.9843 32.0961 59.9467 32.065Z" fill="white"/>
<path d="M20.2433 53.9183C19.2701 53.7034 18.3022 53.3901 17.2838 52.9608C17.2716 52.955 17.2414 52.9209 17.2319 52.8902C17.1304 52.5442 17.0964 52.1956 17.1277 51.8244C17.3271 49.4547 15.916 46.9578 13.7728 45.8873C13.7272 45.8642 13.6797 45.8442 13.625 45.8218L13.5741 45.8007C13.5258 45.7801 13.467 45.7887 13.4281 45.82C13.386 45.8524 13.3651 45.9054 13.3736 45.9585L13.4323 46.3218C13.4843 46.6433 13.5353 46.958 13.5842 47.2729L13.5965 47.3553C13.7341 48.2503 13.8764 49.1758 14.1536 50.0649C14.4037 50.867 14.7896 51.5 15.3263 51.985C14.1924 51.3164 13.1357 50.5129 12.1761 49.5887C12.1559 49.5693 12.132 49.5179 12.1286 49.4755L12.1029 48.8413C12.1027 48.8187 12.1024 48.7589 12.1152 48.7292C12.5879 47.6281 12.7089 46.3886 12.4856 44.9402C12.2702 43.5432 11.6738 42.2586 10.7127 41.1218C10.6002 40.9887 10.5009 40.9213 10.4176 40.9213C10.3973 40.9213 10.3789 40.9254 10.3645 40.9329C10.3203 40.9548 10.2904 40.9974 10.2845 41.0466L10.2588 41.2678C10.2389 41.432 10.2198 41.5932 10.2027 41.7548C10.1731 42.0393 10.1406 42.3234 10.1079 42.6076L10.1033 42.6487C10.0221 43.3584 9.93784 44.0923 9.89333 44.8271C9.84159 45.6843 9.85693 46.6854 10.3636 47.6115C10.3663 47.6162 10.3687 47.6212 10.3714 47.6258C9.66714 46.7452 9.02422 45.7974 8.45064 44.7931C8.39996 44.7038 8.39559 44.6254 8.40507 44.5117C8.44582 44.0309 8.6693 43.6402 8.90466 43.2898C9.35929 42.6112 9.63451 41.8092 9.79708 40.6891C10.0243 39.1226 9.79482 37.5512 9.11536 36.0181C9.09671 35.9759 9.07491 35.9351 9.0516 35.8914L8.99851 35.7912C8.97309 35.7423 8.9188 35.7101 8.8615 35.7127C8.80435 35.7157 8.75397 35.752 8.73322 35.8046C8.56839 36.2203 8.40898 36.6208 8.25062 37.0182L8.14941 37.2722C7.81163 38.1206 7.4328 39.1111 7.21263 40.133C7.05743 40.8541 7.04795 41.5501 7.18405 42.2127C6.65588 40.9556 6.22171 39.6272 5.8892 38.2498C5.88544 38.2344 5.88423 38.1947 5.91717 38.1031C6.07267 37.6775 6.35586 37.2916 6.71469 37.0166C7.50017 36.4141 7.94578 35.5767 8.27799 34.8371C8.9582 33.3245 9.14273 31.7176 8.84195 29.9242C8.83879 29.9054 8.83308 29.8867 8.82631 29.8664L8.8209 29.8502C8.80781 29.81 8.77804 29.7776 8.73863 29.7606C8.70013 29.7445 8.65171 29.7475 8.62178 29.7622C8.5917 29.7732 8.54613 29.7899 8.51651 29.8334C8.34627 30.0607 8.17347 30.2902 8.00052 30.5196L7.9715 30.5582C7.53536 31.1374 7.08435 31.7359 6.65092 32.3322C6.14877 33.0212 5.79415 33.6909 5.56661 34.3796C5.45683 34.7123 5.38509 35.0325 5.35125 35.3435C5.20673 34.2259 5.12477 33.0849 5.10687 31.9345C5.10266 31.6598 5.13755 31.4416 5.32508 31.2027C5.5236 30.9479 5.70903 30.8056 5.96469 30.7118C7.01517 30.328 7.68906 29.5169 8.15873 28.8533C8.91745 27.7796 9.36245 26.5303 9.51916 25.034C9.53585 24.88 9.54532 24.7242 9.5551 24.5593L9.55751 24.5219C9.56217 24.4417 9.56713 24.3583 9.57345 24.2698C9.57736 24.2112 9.54593 24.1561 9.49344 24.1295C9.44261 24.104 9.37749 24.1115 9.33328 24.1489L9.2086 24.2557C9.16168 24.2957 9.12153 24.33 9.07987 24.3634C8.8797 24.5241 8.67878 24.6833 8.47741 24.8428L8.45635 24.8594C8.01436 25.2095 7.55717 25.5715 7.12059 25.9453C6.27344 26.6678 5.72798 27.387 5.40389 28.2088C5.35035 28.3443 5.30343 28.4783 5.26312 28.611C5.39637 27.305 5.61278 26.0189 5.90995 24.7711C5.94604 24.6184 5.9662 24.5736 6.04034 24.5493C6.08696 24.5335 6.13042 24.5031 6.16215 24.4655C6.37766 24.2205 6.66145 24.1817 6.93636 24.1761C7.85374 24.1546 8.58133 23.697 9.17191 23.2521C10.62 22.1615 11.6171 19.3943 11.6171 19.3005C11.6171 19.2516 11.5927 19.2061 11.5514 19.1785C11.5106 19.1516 11.4556 19.1479 11.4141 19.1664C11.1124 19.2943 10.8107 19.419 10.4983 19.5482C9.81106 19.8332 9.10047 20.1276 8.418 20.4496C7.73117 20.7746 7.18842 21.2093 6.80041 21.744C7.17022 20.6933 7.59898 19.6631 8.07902 18.6731C8.13422 18.5663 8.39349 18.4529 8.76525 18.4529C8.88617 18.4529 9.00332 18.4658 9.10453 18.4902C9.978 18.6995 10.8441 18.5726 11.8027 18.0936C12.7834 17.6034 13.597 16.8018 14.29 15.6424C14.3032 15.62 14.3292 15.5516 14.3432 15.5132C14.3608 15.4663 14.3537 15.4146 14.3246 15.3753C14.2975 15.338 14.2542 15.3158 14.199 15.3158C14.1985 15.3158 14.1982 15.3158 14.1978 15.3158L13.8516 15.3376C13.6394 15.351 13.4334 15.364 13.2273 15.3746L13.0073 15.3857C12.3504 15.4188 11.6709 15.4528 11.0062 15.6111C10.2481 15.7934 9.6915 16.0733 9.2647 16.4884C9.76986 15.6475 10.3108 14.8475 10.8806 14.0981C10.896 14.0782 10.9695 14.0478 11.0298 14.0378C11.0599 14.0307 11.1694 14.0077 11.315 14.0077C11.5081 14.0077 11.6771 14.0469 11.8204 14.1257C12.731 14.571 13.7537 14.6041 14.864 14.2227C15.7748 13.9116 16.5461 13.3336 17.2223 12.4564C17.2442 12.4281 17.2641 12.3973 17.2821 12.3648C17.3027 12.3274 17.3041 12.2862 17.286 12.2486C17.2337 12.1388 17.0072 12.0872 16.9119 12.0701C16.6779 12.0292 16.4127 11.9825 16.1498 11.9469C16.0294 11.93 15.9088 11.9124 15.7879 11.8946L15.7724 11.8921C15.3627 11.8317 14.9392 11.7691 14.5126 11.7476C13.7329 11.7078 13.0407 11.8669 12.4742 12.2191C12.8551 11.8136 13.2443 11.4289 13.6395 11.0676C13.7645 10.9536 13.9059 10.8387 14.0985 10.6944C14.1134 10.683 14.1513 10.6696 14.1978 10.6669C15.5632 10.6135 16.6994 10.0108 17.6709 8.82449C18.2001 8.17872 18.6059 7.36421 18.9116 6.33434L18.9221 6.299C18.9548 6.19072 18.9728 6.13116 18.8978 6.06138C18.8399 6.00754 18.7379 6.02348 18.4729 6.12845C18.2323 6.22094 17.9902 6.31073 17.7416 6.40292C17.2421 6.58805 16.7255 6.77949 16.227 6.99575C15.3938 7.35789 14.7285 7.90681 14.2498 8.62703C13.8853 9.17505 13.7412 9.72563 13.809 10.3073C13.8086 10.3138 13.8029 10.3293 13.802 10.3311C12.9323 11.082 12.1009 11.9273 11.2473 12.9334C11.8165 12.0631 12.1875 11.0611 12.3737 9.89948C12.5614 8.72839 12.5733 7.68604 12.4103 6.71302C12.3999 6.65211 12.3859 6.5912 12.368 6.51496L12.3414 6.3975C12.3293 6.34712 12.2914 6.30636 12.2417 6.29072C12.1919 6.27599 12.1361 6.28907 12.0989 6.32441C12.0394 6.38051 11.981 6.43344 11.924 6.48488L11.8839 6.52112C11.738 6.65256 11.6003 6.77663 11.4756 6.91695C10.2642 8.28354 9.55766 9.72698 9.31568 11.3298C9.20544 12.0543 9.25116 12.671 9.45554 13.2148C9.52322 13.395 9.62879 13.5559 9.73391 13.7156C9.78204 13.7886 9.83016 13.8618 9.87423 13.937C9.90671 13.991 9.90942 14.005 9.90927 14.0024C9.88927 14.2167 9.86054 14.4555 9.82174 14.7422C9.82009 14.7458 9.81467 14.7542 9.79738 14.7771L9.78339 14.7965C9.12092 15.7173 8.50974 16.6881 7.95976 17.6928C8.17603 16.9424 8.34822 15.9925 8.33604 14.8888C8.3213 13.5649 8.01646 12.3842 7.40377 11.2787C7.37956 11.2357 7.33565 11.2077 7.27414 11.2035C7.22947 11.2035 7.18646 11.2256 7.15834 11.2634C7.13999 11.2889 7.12134 11.313 7.1036 11.3359C7.06404 11.387 7.02705 11.4354 6.99396 11.4871C6.5061 12.2522 6.24442 13.0957 6.07072 13.7452C5.75324 14.9365 5.60737 15.9312 5.61158 16.8758C5.61398 17.6787 5.76031 18.2959 6.07222 18.8182C6.16922 18.9808 6.29134 19.123 6.41406 19.2662C6.47918 19.3422 6.5461 19.4202 6.60671 19.5002C6.64912 19.5559 6.66957 19.6126 6.67077 19.6441C6.67874 19.8345 6.67453 20.0281 6.67047 20.2152L6.66762 20.3445C6.66716 20.3668 6.66205 20.3923 6.65438 20.4119C6.26277 21.3607 5.91852 22.3468 5.62496 23.3595C5.66812 23.0147 5.69249 22.6808 5.69865 22.3551C5.73415 20.5062 5.16702 18.855 4.01263 17.4469L3.77201 17.1538C3.74419 17.1194 3.70298 17.0998 3.65907 17.0998L3.635 17.102C3.58357 17.1105 3.54026 17.1462 3.52236 17.1947C3.5004 17.2532 3.4789 17.3084 3.45799 17.3618C3.41769 17.465 3.37964 17.5627 3.34746 17.6622C3.09977 18.438 2.97825 19.2856 2.95359 20.4099L2.95314 20.4319C2.93464 21.2499 2.90922 22.3704 3.24519 23.4427C3.5759 24.4983 4.15911 25.0317 4.27221 25.1275L4.28424 25.1383C4.59208 25.4131 4.79255 25.6644 4.83406 25.8276C4.85076 25.8934 4.86775 25.9595 4.8876 26.0247C4.97543 26.3151 4.92054 26.5919 4.86128 26.8907C4.83181 27.0415 4.80113 27.1973 4.79045 27.3572C4.74804 27.9969 4.696 28.6475 4.64562 29.2766L4.64111 29.3348C4.62818 29.4953 4.61524 29.6557 4.60246 29.8162C4.47403 28.3767 3.99729 27.0681 3.17707 25.9109C2.67476 25.2029 2.07591 24.5971 1.39675 24.11C1.36742 24.0889 1.3366 24.0701 1.29539 24.0456C1.27539 24.034 1.25223 24.0202 1.2241 24.0026C1.18169 23.9772 1.12725 23.9749 1.08349 23.9963C1.03867 24.0181 1.00784 24.0624 1.00273 24.1127C0.993556 24.2037 0.982878 24.2918 0.971599 24.3832C0.94889 24.5705 0.927384 24.7473 0.926482 24.929C0.916406 26.8122 1.31479 28.5769 2.11095 30.1734C2.33278 30.6188 2.62589 31.0041 2.98246 31.3191C3.33603 31.6296 3.71757 31.8128 4.14813 31.8787C4.15761 31.8803 4.18017 31.894 4.18363 31.8967C4.20694 31.9435 4.23115 31.9904 4.25536 32.0375C4.34138 32.2037 4.43026 32.3755 4.47448 32.5479C4.51132 32.6936 4.51132 32.8529 4.51132 33.0216C4.51132 33.0834 4.51132 33.1457 4.51328 33.2068C4.55464 34.6655 4.60893 35.1736 4.84233 36.477C4.69991 36.0894 4.5211 35.7008 4.29025 35.3269C3.35543 33.8139 2.1678 32.7869 0.65954 32.1876C0.563591 32.1489 0.467342 32.1211 0.355752 32.0886L0.333495 32.082C0.288227 32.0688 0.240253 32.0546 0.18897 32.039C0.14265 32.0238 0.089863 32.0342 0.0521151 32.0654C0.0145177 32.0966 -0.00518342 32.1442 -0.000220555 32.1939C0.0109083 32.2973 0.0185782 32.398 0.0256465 32.4962C0.0411367 32.7115 0.0557245 32.9148 0.10791 33.1161C0.594571 34.9958 1.40006 36.4929 2.57024 37.6932C3.07059 38.2063 3.59786 38.5005 4.18212 38.5927C4.3295 38.6157 4.50967 38.6185 4.81466 38.5996L4.90249 38.5943C4.91587 38.5936 4.9276 38.5928 4.93828 38.5928C4.96234 38.5928 4.9643 38.5928 4.98099 38.6175L5.3896 39.1786C5.39487 39.186 5.40254 39.2126 5.4078 39.2309L5.41381 39.2511C5.83791 40.6888 6.36413 42.0736 6.98464 43.3878C6.70536 43.0024 6.39932 42.6505 6.05824 42.3195C4.48967 40.7975 1.80792 40.7535 1.50729 40.7535L1.46984 40.7538L1.44623 40.7581C1.37254 40.7843 1.33268 40.8631 1.35539 40.9372C1.3763 41.0072 1.39585 41.0779 1.41826 41.1609C1.46112 41.3168 1.50563 41.4779 1.56805 41.6337C1.86522 42.3763 2.34691 43.0907 3.08428 43.8826C3.59094 44.4255 4.16212 44.9761 4.9049 45.3243C5.71835 45.7063 6.45286 45.7995 7.1833 45.6124C7.30752 45.5798 7.45039 45.5384 7.57326 45.4587C7.66079 45.4026 7.6847 45.4044 7.77072 45.4685C7.87269 45.5443 7.98112 45.6079 8.08639 45.6696C8.14459 45.7037 8.20325 45.7381 8.25799 45.7727C8.26671 45.7801 8.28536 45.8106 8.29228 45.8219C8.94768 46.8909 9.6697 47.8844 10.4493 48.7906C10.0276 48.4838 9.59465 48.2618 9.13476 48.114C7.72937 47.6612 6.2563 47.7188 4.79737 48.2829C4.5796 48.3673 4.34093 48.4951 4.32499 48.5041C4.29161 48.5261 4.2686 48.5616 4.26138 48.6023C4.25506 48.6423 4.26544 48.6832 4.2898 48.7145C4.33537 48.7738 4.37943 48.8333 4.42305 48.8924L4.43267 48.9053C4.53118 49.0395 4.64277 49.1912 4.76789 49.3257C5.3314 49.9298 6.02635 50.3348 6.69348 50.6825C7.61086 51.1585 8.54899 51.4149 9.48201 51.445C9.52592 51.4465 9.56984 51.4474 9.6136 51.4474C10.4719 51.4474 11.1419 51.1645 11.6583 50.586C11.6646 50.5814 11.687 50.5729 11.6994 50.5727C11.8967 50.5869 12.0842 50.6156 12.2244 50.6389C12.2465 50.6428 12.2737 50.656 12.2907 50.6714C13.1535 51.4352 14.0672 52.1056 15.0218 52.6762C14.8771 52.6334 14.7281 52.5961 14.5756 52.5661C13.5555 52.37 12.5145 52.4931 11.3714 52.9472C10.6002 53.2546 9.88295 53.7062 9.17867 54.3278C9.12062 54.3788 9.1125 54.4665 9.16033 54.5272C9.40952 54.8444 9.73376 55.022 10.0182 55.1537C10.7117 55.476 11.4947 55.6824 12.4125 55.7849C12.4152 55.7851 12.7101 55.8107 13.1237 55.8107C13.4222 55.8107 13.7 55.7973 13.9489 55.7709C14.1868 55.746 14.4241 55.7052 14.6544 55.6499C15.7119 55.3924 16.4285 54.863 16.8391 54.0412C16.8465 54.0341 16.878 54.0158 16.918 54.006C17.1089 53.9586 17.2806 53.9252 17.444 53.9034C17.4825 53.8972 17.5304 53.9076 17.5909 53.932C18.3212 54.2134 19.094 54.4478 19.8864 54.6286C19.8976 54.6313 19.9091 54.6326 19.9207 54.6326C19.974 54.6326 20.023 54.6033 20.0489 54.5555C20.1245 54.4147 20.2167 54.2797 20.3227 54.1541C20.356 54.1146 20.3659 54.0619 20.3495 54.0132C20.3338 53.966 20.2941 53.9302 20.2433 53.9183Z" fill="white"/>
<path d="M37.1331 34.5118L43.1757 28.6216C43.3806 28.4219 43.4546 28.1229 43.366 27.8508C43.2775 27.5785 43.0423 27.38 42.759 27.3389L34.4089 26.1263L30.674 18.5598C30.5473 18.303 30.286 18.1406 29.9998 18.1406C29.7136 18.1406 29.4521 18.3033 29.3256 18.5598L25.592 26.1263L17.2405 27.3389C16.9574 27.38 16.722 27.5786 16.6336 27.8508C16.545 28.1229 16.6188 28.4219 16.8238 28.6216L22.8665 34.5118L21.4408 42.8282C21.3924 43.1102 21.5083 43.3953 21.7399 43.5634C21.9712 43.7317 22.278 43.754 22.5317 43.6207L30.0001 39.6948L37.4684 43.6207C37.5784 43.6786 37.6985 43.7071 37.8181 43.7071C37.974 43.7071 38.1291 43.6586 38.2601 43.5634C38.4917 43.3954 38.6078 43.1102 38.5592 42.8282L37.1331 34.5118Z" fill="white"/>
</g>
<defs>
<clipPath id="clip0_731_106">
<rect width="60" height="60" fill="white" transform="translate(0 0.921875)"/>
</clipPath>
</defs>
</svg>
