<svg width="28" height="29" viewBox="0 0 28 29" fill="none" xmlns="http://www.w3.org/2000/svg">
<g clip-path="url(#clip0_156_971)">
<path d="M6.5 12.3347C9.53757 12.3347 12 9.87228 12 6.83472C12 3.79715 9.53757 1.33472 6.5 1.33472C3.46243 1.33472 1 3.79715 1 6.83472C1 9.87228 3.46243 12.3347 6.5 12.3347Z" stroke="white" stroke-width="1.5" stroke-linecap="round" stroke-linejoin="round"/>
<path d="M21.5 12.3347C24.5376 12.3347 27 9.87228 27 6.83472C27 3.79715 24.5376 1.33472 21.5 1.33472C18.4624 1.33472 16 3.79715 16 6.83472C16 9.87228 18.4624 12.3347 21.5 12.3347Z" stroke="white" stroke-width="1.5" stroke-linecap="round" stroke-linejoin="round"/>
<path d="M6.5 27.3347C9.53757 27.3347 12 24.8723 12 21.8347C12 18.7972 9.53757 16.3347 6.5 16.3347C3.46243 16.3347 1 18.7972 1 21.8347C1 24.8723 3.46243 27.3347 6.5 27.3347Z" stroke="white" stroke-width="1.5" stroke-linecap="round" stroke-linejoin="round"/>
<path d="M21.5 27.3347C24.5376 27.3347 27 24.8723 27 21.8347C27 18.7972 24.5376 16.3347 21.5 16.3347C18.4624 16.3347 16 18.7972 16 21.8347C16 24.8723 18.4624 27.3347 21.5 27.3347Z" stroke="white" stroke-width="1.5" stroke-linecap="round" stroke-linejoin="round"/>
</g>
<defs>
<clipPath id="clip0_156_971">
<rect width="28" height="28" fill="white" transform="translate(0 0.334717)"/>
</clipPath>
</defs>
</svg>
