<svg width="40" height="41" viewBox="0 0 40 41" fill="none" xmlns="http://www.w3.org/2000/svg">
<g clip-path="url(#clip0_186_15961)">
<path d="M39.1445 8.17334C38.3922 4.77647 35.0992 1.66475 31.693 1.00381C29.618 0.588967 23.8289 0.076467 20 0.118655C16.1711 0.076467 10.382 0.588967 8.30703 1.00381C4.90078 1.66475 1.60781 4.77647 0.855469 8.17334C0.427344 10.2358 0.00625 13.0421 0 16.8726C0.00625 20.703 0.427344 23.5085 0.855469 25.571C1.60781 28.9679 4.90078 32.0796 8.30703 32.7405C9.42735 32.9647 11.6305 33.2171 14.0234 33.3952C14.2945 33.821 14.5883 34.2741 14.9063 34.7546C16.1758 36.6772 17.1477 38.0171 17.8836 38.9507C19.1086 40.5046 20.8922 40.5046 22.1172 38.9507C22.8531 38.0171 23.8242 36.6772 25.0945 34.7546C25.4125 34.2733 25.7055 33.821 25.9773 33.3952C28.3703 33.2171 30.5734 32.9647 31.6945 32.7405C35.1008 32.0796 38.3938 28.9679 39.1461 25.571C39.5742 23.5085 39.9953 20.703 40.0016 16.8726C39.9953 13.0421 39.5742 10.2366 39.1461 8.17412L39.1445 8.17334ZM22.2086 28.4858C22.1242 28.9616 21.693 29.3929 21.2172 29.4772C20.9289 29.5249 20.5359 29.5702 19.9992 29.571C19.4633 29.571 19.0703 29.5257 18.7813 29.4772C18.3055 29.3929 17.8742 28.9616 17.7898 28.4858C17.7422 28.1976 17.6969 27.8046 17.6961 27.2679C17.6961 26.7319 17.7414 26.339 17.7898 26.0499C17.8742 25.5741 18.3055 25.1429 18.7813 25.0585C19.0695 25.0108 19.4625 24.9655 19.9992 24.9647C20.5352 24.9647 20.9281 25.0101 21.2172 25.0585C21.693 25.1429 22.1242 25.5741 22.2086 26.0499C22.2563 26.3382 22.3016 26.7312 22.3023 27.2679C22.3023 27.8038 22.257 28.1968 22.2086 28.4858ZM26.9648 15.6897C26.3617 16.5429 25.4578 17.3218 24.1203 18.1397C22.4273 19.1835 22.1563 19.6124 22.1563 20.4522V20.7843C22.1563 21.9749 21.1875 22.9437 19.9969 22.9437C18.8063 22.9437 17.8375 21.9749 17.8375 20.7843V20.0147C17.8375 19.0241 18.0852 18.1835 18.5945 17.4452C19.0883 16.7296 19.8281 16.0937 20.9258 15.4413C22.9484 14.2515 23.3188 13.5835 23.3188 12.6968C23.3188 11.5827 22.3695 10.8624 20.9016 10.8624C19.2922 10.8624 18.2445 11.5937 17.7875 13.0366C17.4859 13.9882 16.6047 14.6272 15.5953 14.6272C15.5391 14.6272 15.4828 14.6249 15.4266 14.621C14.7141 14.5694 14.0758 14.1999 13.6758 13.6069C13.2797 13.0202 13.1758 12.2991 13.3906 11.628C13.8828 10.0937 14.8266 8.81709 16.1195 7.93584C17.4289 7.04365 19.0828 6.57256 20.9008 6.57256C22.7188 6.57256 24.5414 7.1749 25.8352 8.26865C27.1664 9.39444 27.9 10.946 27.9 12.639C27.9 13.8015 27.5945 14.7999 26.9648 15.6897Z" fill="black"/>
</g>
<defs>
<clipPath id="clip0_186_15961">
<rect width="40" height="40" fill="white" transform="translate(0 0.116211)"/>
</clipPath>
</defs>
</svg>
