<svg width="28" height="29" viewBox="0 0 28 29" fill="none" xmlns="http://www.w3.org/2000/svg">
<g clip-path="url(#clip0_156_824)">
<path d="M14 11.0999C21.1797 11.0999 27 8.86128 27 6.09985C27 3.33843 21.1797 1.09985 14 1.09985C6.8203 1.09985 1 3.33843 1 6.09985C1 8.86128 6.8203 11.0999 14 11.0999Z" stroke="#6A52E0" stroke-width="1.5" stroke-linecap="round" stroke-linejoin="round"/>
<path d="M1 6.09985V22.0999C1 24.8599 6.82 27.0999 14 27.0999C21.18 27.0999 27 24.8599 27 22.0999V6.09985" stroke="#6A52E0" stroke-width="1.5" stroke-linecap="round" stroke-linejoin="round"/>
<path d="M27 14.0999C27 16.8599 21.18 19.0999 14 19.0999C6.82 19.0999 1 16.8599 1 14.0999" stroke="#6A52E0" stroke-width="1.5" stroke-linecap="round" stroke-linejoin="round"/>
</g>
<defs>
<clipPath id="clip0_156_824">
<rect width="28" height="28" fill="white" transform="translate(0 0.0998535)"/>
</clipPath>
</defs>
</svg>
