<svg width="50" height="51" viewBox="0 0 50 51" fill="none" xmlns="http://www.w3.org/2000/svg">
<g clip-path="url(#clip0_833_17)">
<path d="M11.6066 22.4046C17.0308 22.4046 21.428 18.0074 21.428 12.5831C21.428 7.15892 17.0308 2.76172 11.6066 2.76172C6.18236 2.76172 1.78516 7.15892 1.78516 12.5831C1.78516 18.0074 6.18236 22.4046 11.6066 22.4046Z" stroke="#6A52E0" stroke-width="2" stroke-linecap="round" stroke-linejoin="round"/>
<path d="M38.3917 22.4046C43.816 22.4046 48.2132 18.0074 48.2132 12.5831C48.2132 7.15892 43.816 2.76172 38.3917 2.76172C32.9675 2.76172 28.5703 7.15892 28.5703 12.5831C28.5703 18.0074 32.9675 22.4046 38.3917 22.4046Z" stroke="#6A52E0" stroke-width="2" stroke-linecap="round" stroke-linejoin="round"/>
<path d="M11.6066 49.1907C17.0308 49.1907 21.428 44.7935 21.428 39.3693C21.428 33.9451 17.0308 29.5479 11.6066 29.5479C6.18236 29.5479 1.78516 33.9451 1.78516 39.3693C1.78516 44.7935 6.18236 49.1907 11.6066 49.1907Z" stroke="#6A52E0" stroke-width="2" stroke-linecap="round" stroke-linejoin="round"/>
<path d="M38.3917 49.1897C43.816 49.1897 48.2132 44.7925 48.2132 39.3683C48.2132 33.9441 43.816 29.5469 38.3917 29.5469C32.9675 29.5469 28.5703 33.9441 28.5703 39.3683C28.5703 44.7925 32.9675 49.1897 38.3917 49.1897Z" stroke="#6A52E0" stroke-width="2" stroke-linecap="round" stroke-linejoin="round"/>
</g>
<defs>
<clipPath id="clip0_833_17">
<rect width="50" height="50" fill="white" transform="translate(0 0.975586)"/>
</clipPath>
</defs>
</svg>
