<svg width="29" height="29" viewBox="0 0 29 29" fill="none" xmlns="http://www.w3.org/2000/svg">
<g clip-path="url(#clip0_151_364)">
<path d="M7 12.8865C10.0376 12.8865 12.5 10.424 12.5 7.38647C12.5 4.34891 10.0376 1.88647 7 1.88647C3.96243 1.88647 1.5 4.34891 1.5 7.38647C1.5 10.424 3.96243 12.8865 7 12.8865Z" stroke="#6A52E0" stroke-width="1.5" stroke-linecap="round" stroke-linejoin="round"/>
<path d="M22 12.8865C25.0376 12.8865 27.5 10.424 27.5 7.38647C27.5 4.34891 25.0376 1.88647 22 1.88647C18.9624 1.88647 16.5 4.34891 16.5 7.38647C16.5 10.424 18.9624 12.8865 22 12.8865Z" stroke="#6A52E0" stroke-width="1.5" stroke-linecap="round" stroke-linejoin="round"/>
<path d="M7 27.8865C10.0376 27.8865 12.5 25.424 12.5 22.3865C12.5 19.3489 10.0376 16.8865 7 16.8865C3.96243 16.8865 1.5 19.3489 1.5 22.3865C1.5 25.424 3.96243 27.8865 7 27.8865Z" stroke="#6A52E0" stroke-width="1.5" stroke-linecap="round" stroke-linejoin="round"/>
<path d="M22 27.8865C25.0376 27.8865 27.5 25.424 27.5 22.3865C27.5 19.3489 25.0376 16.8865 22 16.8865C18.9624 16.8865 16.5 19.3489 16.5 22.3865C16.5 25.424 18.9624 27.8865 22 27.8865Z" stroke="#6A52E0" stroke-width="1.5" stroke-linecap="round" stroke-linejoin="round"/>
</g>
<defs>
<clipPath id="clip0_151_364">
<rect width="28" height="28" fill="white" transform="translate(0.5 0.886475)"/>
</clipPath>
</defs>
</svg>
