<svg width="1928" height="420" viewBox="0 0 1928 420" fill="none" xmlns="http://www.w3.org/2000/svg">
<path d="M1849.04 158.248L1829.85 174.89L1813.21 155.698L1794.19 172.191L1810.83 191.383L1791.64 208.025L1808.13 227.045L1827.32 210.402L1843.97 229.594L1862.99 213.1L1846.34 193.909L1865.53 177.268L1849.04 158.248Z" stroke="#DCFD7D" stroke-width="1.4438" stroke-miterlimit="10"/>
<path d="M46.9469 282.416H17.8859C17.0729 282.416 16.5649 281.536 16.9709 280.831L31.5009 255.664L46.0309 230.497C46.4379 229.793 47.4539 229.793 47.8609 230.497L62.3909 255.664L76.9209 280.831C77.3279 281.535 76.8189 282.416 76.0059 282.416H46.9469Z" fill="#DCFD7D"/>
<path d="M31.1188 290.591H2.0578C1.2448 290.591 0.736806 289.711 1.14281 289.006L15.6728 263.839L30.2028 238.672C30.6098 237.968 31.6258 237.968 32.0328 238.672L46.5628 263.839L61.0928 289.006C61.4998 289.71 60.9908 290.591 60.1778 290.591H31.1188Z" stroke="white" stroke-width="1.4268" stroke-miterlimit="10"/>
</svg>
