<svg width="34" height="174" viewBox="0 0 34 174" fill="none" xmlns="http://www.w3.org/2000/svg">
<circle cx="32" cy="2" r="2" transform="rotate(90 32 2)" fill="#DCFD7D"/>
<circle cx="32" cy="12" r="2" transform="rotate(90 32 12)" fill="#DCFD7D"/>
<circle cx="32" cy="32" r="2" transform="rotate(90 32 32)" fill="#DCFD7D"/>
<circle cx="32" cy="42" r="2" transform="rotate(90 32 42)" fill="#DCFD7D"/>
<circle cx="32" cy="52" r="2" transform="rotate(90 32 52)" fill="#DCFD7D"/>
<circle cx="32" cy="62" r="2" transform="rotate(90 32 62)" fill="#DCFD7D"/>
<circle cx="32" cy="72" r="2" transform="rotate(90 32 72)" fill="#DCFD7D"/>
<circle cx="32" cy="82" r="2" transform="rotate(90 32 82)" fill="#DCFD7D"/>
<circle cx="32" cy="22" r="2" transform="rotate(90 32 22)" fill="#DCFD7D"/>
<circle cx="22" cy="2" r="2" transform="rotate(90 22 2)" fill="#DCFD7D"/>
<circle cx="22" cy="12" r="2" transform="rotate(90 22 12)" fill="#DCFD7D"/>
<circle cx="22" cy="32" r="2" transform="rotate(90 22 32)" fill="#DCFD7D"/>
<circle cx="22" cy="42" r="2" transform="rotate(90 22 42)" fill="#DCFD7D"/>
<circle cx="22" cy="52" r="2" transform="rotate(90 22 52)" fill="#DCFD7D"/>
<circle cx="22" cy="62" r="2" transform="rotate(90 22 62)" fill="#DCFD7D"/>
<circle cx="22" cy="72" r="2" transform="rotate(90 22 72)" fill="#DCFD7D"/>
<circle cx="22" cy="82" r="2" transform="rotate(90 22 82)" fill="#DCFD7D"/>
<circle cx="22" cy="22" r="2" transform="rotate(90 22 22)" fill="#DCFD7D"/>
<circle cx="12" cy="2" r="2" transform="rotate(90 12 2)" fill="#DCFD7D"/>
<circle cx="12" cy="12" r="2" transform="rotate(90 12 12)" fill="#DCFD7D"/>
<circle cx="12" cy="32" r="2" transform="rotate(90 12 32)" fill="#DCFD7D"/>
<circle cx="12" cy="42" r="2" transform="rotate(90 12 42)" fill="#DCFD7D"/>
<circle cx="12" cy="52" r="2" transform="rotate(90 12 52)" fill="#DCFD7D"/>
<circle cx="12" cy="62" r="2" transform="rotate(90 12 62)" fill="#DCFD7D"/>
<circle cx="12" cy="72" r="2" transform="rotate(90 12 72)" fill="#DCFD7D"/>
<circle cx="12" cy="82" r="2" transform="rotate(90 12 82)" fill="#DCFD7D"/>
<circle cx="12" cy="22" r="2" transform="rotate(90 12 22)" fill="#DCFD7D"/>
<circle cx="2" cy="2" r="2" transform="rotate(90 2 2)" fill="#DCFD7D"/>
<circle cx="2" cy="12" r="2" transform="rotate(90 2 12)" fill="#DCFD7D"/>
<circle cx="2" cy="32" r="2" transform="rotate(90 2 32)" fill="#DCFD7D"/>
<circle cx="2" cy="42" r="2" transform="rotate(90 2 42)" fill="#DCFD7D"/>
<circle cx="2" cy="52" r="2" transform="rotate(90 2 52)" fill="#DCFD7D"/>
<circle cx="2" cy="62" r="2" transform="rotate(90 2 62)" fill="#DCFD7D"/>
<circle cx="2" cy="72" r="2" transform="rotate(90 2 72)" fill="#DCFD7D"/>
<circle cx="2" cy="82" r="2" transform="rotate(90 2 82)" fill="#DCFD7D"/>
<circle cx="2" cy="22" r="2" transform="rotate(90 2 22)" fill="#DCFD7D"/>
<circle cx="32" cy="92" r="2" transform="rotate(90 32 92)" fill="#DCFD7D"/>
<circle cx="32" cy="102" r="2" transform="rotate(90 32 102)" fill="#DCFD7D"/>
<circle cx="32" cy="122" r="2" transform="rotate(90 32 122)" fill="#DCFD7D"/>
<circle cx="32" cy="132" r="2" transform="rotate(90 32 132)" fill="#DCFD7D"/>
<circle cx="32" cy="142" r="2" transform="rotate(90 32 142)" fill="#DCFD7D"/>
<circle cx="32" cy="152" r="2" transform="rotate(90 32 152)" fill="#DCFD7D"/>
<circle cx="32" cy="162" r="2" transform="rotate(90 32 162)" fill="#DCFD7D"/>
<circle cx="32" cy="172" r="2" transform="rotate(90 32 172)" fill="#DCFD7D"/>
<circle cx="32" cy="112" r="2" transform="rotate(90 32 112)" fill="#DCFD7D"/>
<circle cx="22" cy="92" r="2" transform="rotate(90 22 92)" fill="#DCFD7D"/>
<circle cx="22" cy="102" r="2" transform="rotate(90 22 102)" fill="#DCFD7D"/>
<circle cx="22" cy="122" r="2" transform="rotate(90 22 122)" fill="#DCFD7D"/>
<circle cx="22" cy="132" r="2" transform="rotate(90 22 132)" fill="#DCFD7D"/>
<circle cx="22" cy="142" r="2" transform="rotate(90 22 142)" fill="#DCFD7D"/>
<circle cx="22" cy="152" r="2" transform="rotate(90 22 152)" fill="#DCFD7D"/>
<circle cx="22" cy="162" r="2" transform="rotate(90 22 162)" fill="#DCFD7D"/>
<circle cx="22" cy="172" r="2" transform="rotate(90 22 172)" fill="#DCFD7D"/>
<circle cx="22" cy="112" r="2" transform="rotate(90 22 112)" fill="#DCFD7D"/>
<circle cx="12" cy="92" r="2" transform="rotate(90 12 92)" fill="#DCFD7D"/>
<circle cx="12" cy="102" r="2" transform="rotate(90 12 102)" fill="#DCFD7D"/>
<circle cx="12" cy="122" r="2" transform="rotate(90 12 122)" fill="#DCFD7D"/>
<circle cx="12" cy="132" r="2" transform="rotate(90 12 132)" fill="#DCFD7D"/>
<circle cx="12" cy="142" r="2" transform="rotate(90 12 142)" fill="#DCFD7D"/>
<circle cx="12" cy="152" r="2" transform="rotate(90 12 152)" fill="#DCFD7D"/>
<circle cx="12" cy="162" r="2" transform="rotate(90 12 162)" fill="#DCFD7D"/>
<circle cx="12" cy="172" r="2" transform="rotate(90 12 172)" fill="#DCFD7D"/>
<circle cx="12" cy="112" r="2" transform="rotate(90 12 112)" fill="#DCFD7D"/>
<circle cx="2" cy="92" r="2" transform="rotate(90 2 92)" fill="#DCFD7D"/>
<circle cx="2" cy="102" r="2" transform="rotate(90 2 102)" fill="#DCFD7D"/>
<circle cx="2" cy="122" r="2" transform="rotate(90 2 122)" fill="#DCFD7D"/>
<circle cx="2" cy="132" r="2" transform="rotate(90 2 132)" fill="#DCFD7D"/>
<circle cx="2" cy="142" r="2" transform="rotate(90 2 142)" fill="#DCFD7D"/>
<circle cx="2" cy="152" r="2" transform="rotate(90 2 152)" fill="#DCFD7D"/>
<circle cx="2" cy="162" r="2" transform="rotate(90 2 162)" fill="#DCFD7D"/>
<circle cx="2" cy="172" r="2" transform="rotate(90 2 172)" fill="#DCFD7D"/>
<circle cx="2" cy="112" r="2" transform="rotate(90 2 112)" fill="#DCFD7D"/>
</svg>
