<svg width="30" height="30" viewBox="0 0 30 30" fill="none" xmlns="http://www.w3.org/2000/svg">
<path d="M24.6441 11.1022C24.6441 15.9528 15.0013 27.6606 15.0013 27.6606C15.0013 27.6606 5.3584 15.9528 5.3584 11.1022C5.3584 8.77722 6.37434 6.5475 8.18273 4.90351C9.99111 3.25952 12.4438 2.33594 15.0013 2.33594C17.5587 2.33594 20.0114 3.25952 21.8198 4.90351C23.6282 6.5475 24.6441 8.77722 24.6441 11.1022V11.1022Z" stroke="#6A52E0" stroke-width="2" stroke-linecap="round" stroke-linejoin="round"/>
<path d="M15.0004 14.0238C16.7756 14.0238 18.2147 12.7156 18.2147 11.1018C18.2147 9.48795 16.7756 8.17969 15.0004 8.17969C13.2252 8.17969 11.7861 9.48795 11.7861 11.1018C11.7861 12.7156 13.2252 14.0238 15.0004 14.0238Z" stroke="#6A52E0" stroke-width="2" stroke-linecap="round" stroke-linejoin="round"/>
</svg>
