<svg width="28" height="28" viewBox="0 0 28 28" fill="none" xmlns="http://www.w3.org/2000/svg">
<g clip-path="url(#clip0_394_150)">
<path d="M14 19.332C12.003 19.332 10.1907 18.45 8.75927 16.7811C7.70571 15.5529 7.22669 14.3252 7.20683 14.2735L7.10156 14L7.20678 13.7265C7.22669 13.6748 7.70566 12.4471 8.75922 11.2189C10.1907 9.55004 12.003 8.66797 14 8.66797C15.9971 8.66797 17.8094 9.55004 19.2408 11.2189C20.2944 12.4471 20.7734 13.6748 20.7933 13.7265L20.8985 14L20.7933 14.2735C20.7733 14.3252 20.2944 15.5529 19.2408 16.7811C17.8094 18.45 15.9971 19.332 14 19.332ZM8.75089 14.0001C8.9338 14.3821 9.32497 15.1092 9.94506 15.8234C11.0888 17.1407 12.4531 17.8086 14 17.8086C15.547 17.8086 16.9113 17.1407 18.0551 15.8234C18.675 15.1094 19.066 14.3827 19.2492 14C19.066 13.6173 18.675 12.8905 18.0551 12.1766C16.9113 10.8593 15.547 10.1914 14 10.1914C12.4531 10.1914 11.0888 10.8593 9.94501 12.1766C9.32512 12.8905 8.93405 13.6173 8.75089 14.0001Z" fill="#6A52E0"/>
<path d="M13.2383 1H14.7617V5.57031H13.2383V1Z" fill="#6A52E0"/>
<path d="M22.4297 13.2383H27V14.7617H22.4297V13.2383Z" fill="#6A52E0"/>
<path d="M13.2383 22.4297H14.7617V27H13.2383V22.4297Z" fill="#6A52E0"/>
<path d="M1 13.2383H5.57031V14.7617H1V13.2383Z" fill="#6A52E0"/>
<path d="M14 16.2852C12.74 16.2852 11.7148 15.26 11.7148 14C11.7148 12.74 12.74 11.7148 14 11.7148C15.26 11.7148 16.2852 12.74 16.2852 14C16.2852 15.26 15.26 16.2852 14 16.2852ZM14 13.2383C13.58 13.2383 13.2383 13.58 13.2383 14C13.2383 14.42 13.58 14.7617 14 14.7617C14.42 14.7617 14.7617 14.42 14.7617 14C14.7617 13.58 14.42 13.2383 14 13.2383Z" fill="#6A52E0"/>
<path d="M23.5455 11.1693C23.0777 9.58934 22.2107 8.13446 21.0383 6.96207C19.8659 5.78969 18.4111 4.92275 16.8311 4.45495L17.2635 2.99418C19.0864 3.53383 20.7642 4.53341 22.1156 5.8848C23.467 7.23619 24.4666 8.914 25.0062 10.7369L23.5455 11.1693Z" fill="#6A52E0"/>
<path d="M17.2635 25.0058L16.8311 23.545C18.4111 23.0772 19.8659 22.2103 21.0383 21.0379C22.2107 19.8655 23.0776 18.4107 23.5454 16.8306L25.0062 17.263C24.4665 19.0859 23.4669 20.7637 22.1156 22.1151C20.7641 23.4666 19.0863 24.4662 17.2635 25.0058Z" fill="#6A52E0"/>
<path d="M10.7369 25.0058C8.91402 24.4661 7.2362 23.4665 5.88481 22.1152C4.53342 20.7638 3.53384 19.0859 2.99414 17.2631L4.45491 16.8306C4.92271 18.4106 5.78965 19.8655 6.96203 21.0379C8.13442 22.2103 9.58925 23.0772 11.1693 23.545L10.7369 25.0058Z" fill="#6A52E0"/>
<path d="M4.45491 11.1693L2.99414 10.7369C3.53379 8.91405 4.53337 7.23624 5.88476 5.88485C7.2362 4.53341 8.91402 3.53383 10.7369 2.99418L11.1693 4.45495C9.5893 4.92275 8.13442 5.78969 6.96203 6.96207C5.78965 8.13446 4.92271 9.58934 4.45491 11.1693Z" fill="#6A52E0"/>
</g>
<defs>
<clipPath id="clip0_394_150">
<rect width="26" height="26" fill="white" transform="translate(1 1)"/>
</clipPath>
</defs>
</svg>
