<svg width="1924" height="540" viewBox="0 0 1924 540" fill="none" xmlns="http://www.w3.org/2000/svg">
<path d="M60.3864 533.153L56.4164 536.292L52.4443 539.431V533.153V526.875L56.4164 530.014L60.3864 533.153Z" fill="#6A52E0"/>
<path d="M83.7047 533.153L79.7337 536.292L75.7627 539.431V533.153V526.875L79.7337 530.014L83.7047 533.153Z" fill="#6A52E0"/>
<path d="M107.021 533.153L103.05 536.292L99.0791 539.431V533.153V526.875L103.05 530.014L107.021 533.153Z" fill="#6A52E0"/>
<path d="M130.338 533.153L126.367 536.292L122.396 539.431V533.153V526.875L126.367 530.014L130.338 533.153Z" fill="#6A52E0"/>
<path d="M153.655 533.153L149.684 536.292L145.713 539.431V533.153V526.875L149.684 530.014L153.655 533.153Z" fill="#6A52E0"/>
<path d="M1826.78 496.319C1826.57 497.446 1825.49 498.191 1824.36 497.983C1823.24 497.775 1822.49 496.693 1822.7 495.566C1822.91 494.439 1823.99 493.694 1825.12 493.902C1826.24 494.111 1826.99 495.192 1826.78 496.319Z" fill="#6A52E0"/>
<path d="M1842.84 496.319C1842.63 497.446 1841.55 498.191 1840.42 497.983C1839.3 497.775 1838.55 496.693 1838.76 495.566C1838.97 494.439 1840.05 493.694 1841.18 493.902C1842.3 494.111 1843.05 495.192 1842.84 496.319Z" fill="#6A52E0"/>
<path d="M1858.9 496.319C1858.7 497.446 1857.61 498.191 1856.49 497.983C1855.36 497.775 1854.62 496.693 1854.82 495.566C1855.03 494.439 1856.11 493.694 1857.24 493.902C1858.37 494.111 1859.11 495.192 1858.9 496.319Z" fill="#6A52E0"/>
<path d="M1874.97 496.319C1874.76 497.446 1873.68 498.191 1872.55 497.983C1871.42 497.775 1870.68 496.693 1870.89 495.566C1871.09 494.439 1872.18 493.694 1873.3 493.902C1874.43 494.111 1875.18 495.192 1874.97 496.319Z" fill="#6A52E0"/>
<path d="M1891.03 496.319C1890.82 497.446 1889.74 498.191 1888.61 497.983C1887.48 497.775 1886.74 496.693 1886.95 495.566C1887.16 494.439 1888.24 493.694 1889.36 493.902C1890.49 494.111 1891.24 495.192 1891.03 496.319Z" fill="#6A52E0"/>
<path d="M1826.78 509.85C1826.57 510.977 1825.49 511.722 1824.36 511.514C1823.24 511.306 1822.49 510.224 1822.7 509.097C1822.91 507.97 1823.99 507.225 1825.12 507.433C1826.24 507.641 1826.99 508.723 1826.78 509.85Z" fill="#6A52E0"/>
<path d="M1842.84 509.85C1842.63 510.977 1841.55 511.722 1840.42 511.514C1839.3 511.306 1838.55 510.224 1838.76 509.097C1838.97 507.97 1840.05 507.225 1841.18 507.433C1842.3 507.641 1843.05 508.723 1842.84 509.85Z" fill="#6A52E0"/>
<path d="M1858.9 509.85C1858.7 510.977 1857.61 511.722 1856.49 511.514C1855.36 511.306 1854.62 510.224 1854.82 509.097C1855.03 507.97 1856.11 507.225 1857.24 507.433C1858.37 507.641 1859.11 508.723 1858.9 509.85Z" fill="#6A52E0"/>
<path d="M1874.97 509.85C1874.76 510.977 1873.68 511.722 1872.55 511.514C1871.42 511.306 1870.68 510.224 1870.89 509.097C1871.09 507.97 1872.18 507.225 1873.3 507.433C1874.43 507.641 1875.18 508.723 1874.97 509.85Z" fill="#6A52E0"/>
<path d="M1891.03 509.85C1890.82 510.977 1889.74 511.722 1888.61 511.514C1887.48 511.306 1886.74 510.224 1886.95 509.097C1887.16 507.97 1888.24 507.225 1889.36 507.433C1890.49 507.641 1891.24 508.723 1891.03 509.85Z" fill="#6A52E0"/>
<path d="M1826.78 523.382C1826.57 524.509 1825.49 525.254 1824.36 525.046C1823.24 524.838 1822.49 523.756 1822.7 522.629C1822.91 521.502 1823.99 520.757 1825.12 520.965C1826.24 521.173 1826.99 522.255 1826.78 523.382Z" fill="#6A52E0"/>
<path d="M1842.84 523.382C1842.63 524.509 1841.55 525.254 1840.42 525.046C1839.3 524.838 1838.55 523.756 1838.76 522.629C1838.97 521.502 1840.05 520.757 1841.18 520.965C1842.3 521.173 1843.05 522.255 1842.84 523.382Z" fill="#6A52E0"/>
<path d="M1858.9 523.382C1858.7 524.509 1857.61 525.254 1856.49 525.046C1855.36 524.838 1854.62 523.756 1854.82 522.629C1855.03 521.502 1856.11 520.757 1857.24 520.965C1858.37 521.173 1859.11 522.255 1858.9 523.382Z" fill="#6A52E0"/>
<path d="M1874.97 523.382C1874.76 524.509 1873.68 525.254 1872.55 525.046C1871.42 524.838 1870.68 523.756 1870.89 522.629C1871.09 521.502 1872.18 520.757 1873.3 520.965C1874.43 521.173 1875.18 522.255 1874.97 523.382Z" fill="#6A52E0"/>
<path d="M1891.03 523.382C1890.82 524.509 1889.74 525.254 1888.61 525.046C1887.48 524.838 1886.74 523.756 1886.95 522.629C1887.16 521.502 1888.24 520.757 1889.36 520.965C1890.49 521.173 1891.24 522.255 1891.03 523.382Z" fill="#6A52E0"/>
<path d="M1826.78 536.913C1826.57 538.04 1825.49 538.785 1824.36 538.577C1823.24 538.369 1822.49 537.287 1822.7 536.16C1822.91 535.033 1823.99 534.288 1825.12 534.496C1826.24 534.704 1826.99 535.786 1826.78 536.913Z" fill="#6A52E0"/>
<path d="M1842.84 536.913C1842.63 538.04 1841.55 538.785 1840.42 538.577C1839.3 538.369 1838.55 537.287 1838.76 536.16C1838.97 535.033 1840.05 534.288 1841.18 534.496C1842.3 534.704 1843.05 535.786 1842.84 536.913Z" fill="#6A52E0"/>
<path d="M1858.9 536.913C1858.7 538.04 1857.61 538.785 1856.49 538.577C1855.36 538.369 1854.62 537.287 1854.82 536.16C1855.03 535.033 1856.11 534.288 1857.24 534.496C1858.37 534.704 1859.11 535.786 1858.9 536.913Z" fill="#6A52E0"/>
<path d="M1874.97 536.913C1874.76 538.04 1873.68 538.785 1872.55 538.577C1871.42 538.369 1870.68 537.287 1870.89 536.16C1871.09 535.033 1872.18 534.288 1873.3 534.496C1874.43 534.704 1875.18 535.786 1874.97 536.913Z" fill="#6A52E0"/>
<path d="M1891.03 536.913C1890.82 538.04 1889.74 538.785 1888.61 538.577C1887.48 538.369 1886.74 537.287 1886.95 536.16C1887.16 535.033 1888.24 534.288 1889.36 534.496C1890.49 534.704 1891.24 535.786 1891.03 536.913Z" fill="#6A52E0"/>
<path d="M1906.43 4.11977L1887.24 20.7622L1870.59 1.57031L1851.57 18.0627L1868.22 37.2546L1849.03 53.897L1865.52 72.9167L1884.71 56.2743L1901.35 75.4662L1920.37 58.9722L1903.73 39.7803L1922.92 23.1395L1906.43 4.11977Z" stroke="#6A52E0" stroke-width="1.4438" stroke-miterlimit="10"/>
<path d="M46.9606 95.1814H17.8996C17.0866 95.1814 16.5786 94.3014 16.9846 93.5964L31.5146 68.4294L46.0446 43.2624C46.4516 42.5584 47.4676 42.5584 47.8746 43.2624L62.4046 68.4294L76.9346 93.5964C77.3416 94.3004 76.8326 95.1814 76.0196 95.1814H46.9606Z" fill="#DCFD7D"/>
<path d="M31.1364 103.353H2.07538C1.26238 103.353 0.754384 102.473 1.16038 101.768L15.6904 76.6013L30.2204 51.4342C30.6274 50.7303 31.6434 50.7303 32.0504 51.4342L46.5804 76.6013L61.1104 101.768C61.5174 102.472 61.0084 103.353 60.1954 103.353H31.1364Z" stroke="#6A52E0" stroke-width="1.4268" stroke-miterlimit="10"/>
</svg>
