<svg width="10" height="7" viewBox="0 0 10 7" fill="none" xmlns="http://www.w3.org/2000/svg">
<path fill-rule="evenodd" clip-rule="evenodd" d="M7.72096 2.12568C8.05381 1.65936 8.68296 1.15734 9.53949 0.739423C9.76207 0.630816 9.66166 0.294193 9.41595 0.325274C7.61631 0.552913 6.44987 1.34109 5.81289 2.51319C5.57598 2.94913 5.42714 3.41314 5.34788 3.88681C5.29561 4.19912 5.28181 4.4335 5.28181 4.7042C5.28181 5.91389 6.26245 6.89453 7.47214 6.89453C8.68182 6.89453 9.66247 5.91389 9.66247 4.7042C9.66247 3.49452 8.66618 2.51319 7.52128 2.51319C7.58168 2.34735 7.59619 2.30048 7.72096 2.12568ZM2.90223 2.12568C3.23509 1.65936 3.86424 1.15734 4.72076 0.739423C4.94335 0.630816 4.84294 0.294193 4.59722 0.325274C2.79759 0.552913 1.63114 1.34109 0.994168 2.51319C0.757259 2.94913 0.608417 3.41314 0.529151 3.88681C0.476888 4.19912 0.463086 4.4335 0.463086 4.7042C0.463086 5.91389 1.44373 6.89453 2.65342 6.89453C3.8631 6.89453 4.84374 5.91389 4.84374 4.7042C4.84374 3.49452 3.84746 2.51319 2.70256 2.51319C2.76296 2.34735 2.77747 2.30048 2.90223 2.12568Z" fill="black"/>
</svg>
